<svg xmlns="http://www.w3.org/2000/svg" xmlns:xlink="http://www.w3.org/1999/xlink" width="500" zoomAndPan="magnify" viewBox="0 0 375 374.999991" height="500" preserveAspectRatio="xMidYMid meet" version="1.0"><defs><filter x="0%" y="0%" width="100%" height="100%" id="58ae4153cc"><feColorMatrix values="0 0 0 0 1 0 0 0 0 1 0 0 0 0 1 0 0 0 1 0" color-interpolation-filters="sRGB"/></filter><mask id="ee2ba901dd"><g filter="url(#58ae4153cc)"><rect x="-37.5" width="450" fill="#000000" y="-37.499999" height="449.999989" fill-opacity="0.19"/></g></mask><clipPath id="16251ddc48"><path d="M 65 167 L 140 167 L 140 188.160156 L 65 188.160156 Z M 65 167 " clip-rule="nonzero"/></clipPath><clipPath id="7f120a6fac"><path d="M 1.558594 25 L 33 25 L 33 92 L 1.558594 92 Z M 1.558594 25 " clip-rule="nonzero"/></clipPath><clipPath id="be1d664a75"><path d="M 1.558594 96 L 35 96 L 35 163 L 1.558594 163 Z M 1.558594 96 " clip-rule="nonzero"/></clipPath><clipPath id="d3250fee90"><rect x="0" width="189" y="0" height="189"/></clipPath><mask id="1fd1d8a13a"><g filter="url(#58ae4153cc)"><rect x="-37.5" width="450" fill="#000000" y="-37.499999" height="449.999989" fill-opacity="0.19"/></g></mask><clipPath id="eeb9006ac3"><path d="M 14 15 L 51 15 L 51 54 L 14 54 Z M 14 15 " clip-rule="nonzero"/></clipPath><clipPath id="e204b91e99"><path d="M 23.84375 145.371094 L 0.0195312 24.703125 L 122.894531 0.441406 L 146.722656 121.109375 Z M 23.84375 145.371094 " clip-rule="nonzero"/></clipPath><clipPath id="b13d7e17eb"><path d="M 23.84375 145.371094 L 0.0195312 24.703125 L 122.894531 0.441406 L 146.722656 121.109375 Z M 23.84375 145.371094 " clip-rule="nonzero"/></clipPath><clipPath id="198d25d876"><path d="M 23 79 L 63 79 L 63 120 L 23 120 Z M 23 79 " clip-rule="nonzero"/></clipPath><clipPath id="19d3af2877"><path d="M 23.84375 145.371094 L 0.0195312 24.703125 L 122.894531 0.441406 L 146.722656 121.109375 Z M 23.84375 145.371094 " clip-rule="nonzero"/></clipPath><clipPath id="4d42e8413e"><path d="M 23.84375 145.371094 L 0.0195312 24.703125 L 122.894531 0.441406 L 146.722656 121.109375 Z M 23.84375 145.371094 " clip-rule="nonzero"/></clipPath><clipPath id="8df59d466b"><path d="M 10 54 L 25 54 L 25 104 L 10 104 Z M 10 54 " clip-rule="nonzero"/></clipPath><clipPath id="1f3ef3dbc7"><path d="M 23.84375 145.371094 L 0.0195312 24.703125 L 122.894531 0.441406 L 146.722656 121.109375 Z M 23.84375 145.371094 " clip-rule="nonzero"/></clipPath><clipPath id="5deedc4caf"><path d="M 23.84375 145.371094 L 0.0195312 24.703125 L 122.894531 0.441406 L 146.722656 121.109375 Z M 23.84375 145.371094 " clip-rule="nonzero"/></clipPath><clipPath id="c691a48b70"><path d="M 41 14 L 90 14 L 90 51 L 41 51 Z M 41 14 " clip-rule="nonzero"/></clipPath><clipPath id="ce4d5837a7"><path d="M 23.84375 145.371094 L 0.0195312 24.703125 L 122.894531 0.441406 L 146.722656 121.109375 Z M 23.84375 145.371094 " clip-rule="nonzero"/></clipPath><clipPath id="70aed846fc"><path d="M 23.84375 145.371094 L 0.0195312 24.703125 L 122.894531 0.441406 L 146.722656 121.109375 Z M 23.84375 145.371094 " clip-rule="nonzero"/></clipPath><clipPath id="a7aa6f280d"><path d="M 47 48 L 98 48 L 98 99 L 47 99 Z M 47 48 " clip-rule="nonzero"/></clipPath><clipPath id="b32b56a2cf"><path d="M 23.84375 145.371094 L 0.0195312 24.703125 L 122.894531 0.441406 L 146.722656 121.109375 Z M 23.84375 145.371094 " clip-rule="nonzero"/></clipPath><clipPath id="4404a4c382"><path d="M 23.84375 145.371094 L 0.0195312 24.703125 L 122.894531 0.441406 L 146.722656 121.109375 Z M 23.84375 145.371094 " clip-rule="nonzero"/></clipPath><clipPath id="4aa74e2fdc"><path d="M 73 10 L 120 10 L 120 36 L 73 36 Z M 73 10 " clip-rule="nonzero"/></clipPath><clipPath id="d0e7c5c542"><path d="M 23.84375 145.371094 L 0.0195312 24.703125 L 122.894531 0.441406 L 146.722656 121.109375 Z M 23.84375 145.371094 " clip-rule="nonzero"/></clipPath><clipPath id="4c51b9c0ea"><path d="M 23.84375 145.371094 L 0.0195312 24.703125 L 122.894531 0.441406 L 146.722656 121.109375 Z M 23.84375 145.371094 " clip-rule="nonzero"/></clipPath><clipPath id="818c8e24f8"><path d="M 115 32 L 136 32 L 136 81 L 115 81 Z M 115 32 " clip-rule="nonzero"/></clipPath><clipPath id="aaa930a874"><path d="M 23.84375 145.371094 L 0.0195312 24.703125 L 122.894531 0.441406 L 146.722656 121.109375 Z M 23.84375 145.371094 " clip-rule="nonzero"/></clipPath><clipPath id="ea5ab5a233"><path d="M 23.84375 145.371094 L 0.0195312 24.703125 L 122.894531 0.441406 L 146.722656 121.109375 Z M 23.84375 145.371094 " clip-rule="nonzero"/></clipPath><clipPath id="d035febe52"><path d="M 36 121 L 84 121 L 84 135 L 36 135 Z M 36 121 " clip-rule="nonzero"/></clipPath><clipPath id="d172edb4e5"><path d="M 23.84375 145.371094 L 0.0195312 24.703125 L 122.894531 0.441406 L 146.722656 121.109375 Z M 23.84375 145.371094 " clip-rule="nonzero"/></clipPath><clipPath id="c5b04d6557"><path d="M 23.84375 145.371094 L 0.0195312 24.703125 L 122.894531 0.441406 L 146.722656 121.109375 Z M 23.84375 145.371094 " clip-rule="nonzero"/></clipPath><clipPath id="3282de6a30"><path d="M 91 63 L 130 63 L 130 110 L 91 110 Z M 91 63 " clip-rule="nonzero"/></clipPath><clipPath id="aef3787b76"><path d="M 23.84375 145.371094 L 0.0195312 24.703125 L 122.894531 0.441406 L 146.722656 121.109375 Z M 23.84375 145.371094 " clip-rule="nonzero"/></clipPath><clipPath id="193c4f0f2f"><path d="M 23.84375 145.371094 L 0.0195312 24.703125 L 122.894531 0.441406 L 146.722656 121.109375 Z M 23.84375 145.371094 " clip-rule="nonzero"/></clipPath><clipPath id="d85b3675b1"><path d="M 85 102 L 126 102 L 126 134 L 85 134 Z M 85 102 " clip-rule="nonzero"/></clipPath><clipPath id="ab816366dd"><path d="M 23.84375 145.371094 L 0.0195312 24.703125 L 122.894531 0.441406 L 146.722656 121.109375 Z M 23.84375 145.371094 " clip-rule="nonzero"/></clipPath><clipPath id="e542dc1fd9"><path d="M 23.84375 145.371094 L 0.0195312 24.703125 L 122.894531 0.441406 L 146.722656 121.109375 Z M 23.84375 145.371094 " clip-rule="nonzero"/></clipPath><clipPath id="ee1d5aa255"><rect x="0" width="147" y="0" height="147"/></clipPath></defs><g mask="url(#ee2ba901dd)"><g transform="matrix(1, 0, 0, 1, 53, 24)"><g clip-path="url(#d3250fee90)"><path fill="#1f894c" d="M 147.695312 36.5 C 150.742188 41.65625 153.453125 47.289062 155.222656 51.1875 C 162.0625 54.949219 175.132812 63.324219 183.621094 76.152344 C 184.652344 75.085938 185.902344 74.070312 186.976562 73.289062 C 181.210938 47.90625 165.160156 26.394531 143.429688 13.40625 L 138.070312 22.625 C 140.171875 25.238281 144.039062 30.300781 147.695312 36.5 Z M 147.695312 36.5 " fill-opacity="1" fill-rule="nonzero"/><path fill="#1f894c" d="M 30.890625 59.480469 C 35.484375 61.667969 47.898438 67.5 55.914062 70.464844 L 92.753906 49.941406 C 93.25 46.917969 94.015625 41.785156 94.617188 35.597656 C 95.21875 29.371094 95.363281 25.128906 95.382812 22.804688 C 91.171875 20.28125 76.988281 12.441406 62.066406 11.472656 C 51.417969 15.460938 40.972656 22.839844 37.328125 25.550781 C 35.117188 29.878906 31.371094 39.9375 30.898438 59.132812 C 30.894531 59.257812 30.894531 59.355469 30.890625 59.480469 Z M 30.890625 59.480469 " fill-opacity="1" fill-rule="nonzero"/><path fill="#1f894c" d="M 99.078125 19.957031 C 102.597656 19.367188 108.445312 18.640625 115.914062 18.640625 C 123.816406 18.640625 130.902344 19.683594 134.316406 20.28125 L 139.582031 11.222656 C 126.394531 4.15625 111.34375 0.136719 95.363281 0.136719 C 85.097656 0.136719 75.21875 1.816406 65.960938 4.875 L 65.058594 7.308594 C 82.820312 9.324219 98.382812 19.429688 99.109375 19.90625 Z M 99.078125 19.957031 " fill-opacity="1" fill-rule="nonzero"/><path fill="#1f894c" d="M 155.59375 131.054688 C 163.164062 127.046875 175.550781 118.585938 182.871094 103.746094 C 184.03125 96.074219 183.183594 87.753906 182.472656 82.957031 C 175.894531 70.390625 163.839844 61.535156 156.097656 56.839844 C 154.40625 57.890625 150.992188 60.101562 145.730469 63.9375 C 140.601562 67.679688 135.917969 71.355469 133.285156 73.457031 C 134.050781 83.304688 134.90625 100.261719 133.351562 114.929688 Z M 155.59375 131.054688 " fill-opacity="1" fill-rule="nonzero"/><path fill="#1f894c" d="M 94.457031 54.054688 L 58.984375 73.816406 C 58.890625 76.949219 58.75 83.304688 58.820312 92.566406 C 58.898438 102.648438 59.367188 108.65625 59.703125 111.726562 C 66.1875 117.050781 77.453125 124.730469 94.386719 131.332031 C 100.65625 128.550781 120.84375 119.496094 128.917969 114.753906 C 130.445312 100.503906 129.605469 83.625 128.859375 73.851562 C 125.421875 71.695312 118.554688 67.429688 112.636719 64.019531 C 106.53125 60.503906 98.335938 56.117188 94.457031 54.054688 Z M 94.457031 54.054688 " fill-opacity="1" fill-rule="nonzero"/><path fill="#1f894c" d="M 183.640625 111.445312 C 175.074219 124.96875 163.027344 132.417969 156.058594 135.828125 C 153.617188 141.964844 147.722656 154.992188 138.347656 165.304688 L 143.675781 174.660156 C 165.304688 161.636719 181.269531 140.15625 186.996094 114.828125 C 185.613281 113.691406 184.476562 112.488281 183.640625 111.445312 Z M 183.640625 111.445312 " fill-opacity="1" fill-rule="nonzero"/><g clip-path="url(#16251ddc48)"><path fill="#1f894c" d="M 99.710938 168.773438 C 82.867188 176.707031 71.421875 178.53125 65.96875 178.890625 C 65.972656 180.28125 65.964844 181.894531 65.9375 183.320312 C 75.203125 186.382812 85.085938 188.066406 95.363281 188.066406 C 111.441406 188.066406 126.589844 184 139.835938 176.851562 L 134.65625 167.761719 C 130.339844 168.832031 118.570312 170.976562 99.710938 168.773438 Z M 99.710938 168.773438 " fill-opacity="1" fill-rule="nonzero"/></g><g clip-path="url(#7f120a6fac)"><path fill="#1f894c" d="M 26.417969 61.824219 C 26.433594 60.933594 26.449219 60.03125 26.476562 59.023438 C 26.910156 41.542969 29.96875 31.175781 32.433594 25.550781 L 31.488281 25.273438 C 13.503906 41.976562 2.066406 65.613281 1.457031 91.890625 L 10.171875 91.890625 C 11.792969 86.710938 16.367188 74.449219 26.417969 61.824219 Z M 26.417969 61.824219 " fill-opacity="1" fill-rule="nonzero"/></g><path fill="#1f894c" d="M 93.042969 135.566406 C 75.792969 128.894531 64.273438 121.1875 57.402344 115.613281 C 52.410156 118.078125 41.195312 123.6875 31.601562 128.96875 C 32.84375 147.347656 37.769531 157.621094 40.144531 161.574219 C 43.4375 164.085938 51.789062 170.003906 62.832031 174.535156 C 63.976562 174.59375 75.355469 174.839844 95.359375 165.882812 C 95.316406 160.867188 94.996094 148.382812 93.042969 135.566406 Z M 93.042969 135.566406 " fill-opacity="1" fill-rule="nonzero"/><g clip-path="url(#be1d664a75)"><path fill="#1f894c" d="M 10.011719 96.3125 L 1.457031 96.3125 C 2.0625 122.375 13.320312 145.835938 31.050781 162.515625 L 34.984375 161.386719 C 32.085938 155.722656 28.0625 144.9375 27.105469 127.84375 C 23.210938 122.695312 14.511719 110.226562 10.011719 96.3125 Z M 10.011719 96.3125 " fill-opacity="1" fill-rule="nonzero"/></g></g></g></g><g mask="url(#1fd1d8a13a)"><g transform="matrix(1, 0, 0, 1, 174, 206)"><g clip-path="url(#ee1d5aa255)"><g clip-path="url(#eeb9006ac3)"><g clip-path="url(#e204b91e99)"><g clip-path="url(#b13d7e17eb)"><path fill="#1f894c" d="M 29.050781 45.847656 C 32.007812 43.210938 35.316406 40.730469 37.617188 39.082031 C 39.183594 34.164062 42.9375 24.613281 50.175781 17.460938 C 49.351562 16.929688 48.53125 16.246094 47.886719 15.652344 C 32.160156 22.644531 20.261719 35.8125 14.617188 51.570312 L 21.285156 53.867188 C 22.710938 52.167969 25.5 49.011719 29.050781 45.847656 Z M 29.050781 45.847656 " fill-opacity="1" fill-rule="nonzero"/></g></g></g><g clip-path="url(#198d25d876)"><g clip-path="url(#19d3af2877)"><g clip-path="url(#4d42e8413e)"><path fill="#1f894c" d="M 58.921875 118.675781 C 59.753906 115.414062 61.945312 106.617188 62.84375 101.035156 L 44.808594 79.765625 C 42.785156 79.832031 39.359375 79.992188 35.265625 80.394531 C 31.148438 80.800781 28.378906 81.253906 26.871094 81.535156 C 25.773438 84.589844 22.503906 94.796875 23.785156 104.601562 C 27.738281 110.996094 33.863281 116.828125 36.089844 118.847656 C 39.175781 119.726562 46.183594 120.867188 58.695312 118.714844 C 58.777344 118.703125 58.839844 118.6875 58.921875 118.675781 Z M 58.921875 118.675781 " fill-opacity="1" fill-rule="nonzero"/></g></g></g><g clip-path="url(#8df59d466b)"><g clip-path="url(#1f3ef3dbc7)"><g clip-path="url(#5deedc4caf)"><path fill="#1f894c" d="M 24.546875 79.503906 C 23.714844 77.296875 22.496094 73.597656 21.539062 68.75 C 20.527344 63.625 20.296875 58.894531 20.246094 56.601562 L 13.695312 54.347656 C 10.800781 63.808594 10.121094 74.085938 12.167969 84.453125 C 13.484375 91.113281 15.835938 97.304688 19.007812 102.917969 L 20.699219 103.195312 C 19.734375 91.410156 24.296875 80.023438 24.511719 79.488281 Z M 24.546875 79.503906 " fill-opacity="1" fill-rule="nonzero"/></g></g></g><g clip-path="url(#c691a48b70)"><g clip-path="url(#ce4d5837a7)"><g clip-path="url(#70aed846fc)"><path fill="#1f894c" d="M 89.378906 28.609375 C 85.8125 24.210938 78.734375 17.261719 68.171875 14.414062 C 63.046875 14.644531 57.753906 16.257812 54.738281 17.335938 C 47.425781 23.210938 43.226562 32.167969 41.171875 37.789062 C 42.070312 38.753906 43.941406 40.683594 47.105469 43.605469 C 50.1875 46.457031 53.171875 49.023438 54.875 50.460938 C 61.164062 48.703125 72.054688 45.976562 81.769531 45.105469 Z M 89.378906 28.609375 " fill-opacity="1" fill-rule="nonzero"/></g></g></g><g clip-path="url(#a7aa6f280d)"><g clip-path="url(#b32b56a2cf)"><g clip-path="url(#4404a4c382)"><path fill="#1f894c" d="M 47.261719 78.132812 L 64.625 98.613281 C 66.667969 98.273438 70.808594 97.550781 76.808594 96.320312 C 83.335938 94.976562 87.175781 93.90625 89.125 93.292969 C 91.746094 88.402344 95.285156 80.113281 97.398438 68.28125 C 94.792969 64.570312 86.335938 52.632812 82.222656 48.003906 C 72.78125 48.839844 61.941406 51.546875 55.695312 53.28125 C 54.738281 55.785156 52.847656 60.789062 51.398438 65.066406 C 49.898438 69.472656 48.101562 75.355469 47.261719 78.132812 Z M 47.261719 78.132812 " fill-opacity="1" fill-rule="nonzero"/></g></g></g><g clip-path="url(#4aa74e2fdc)"><g clip-path="url(#d0e7c5c542)"><g clip-path="url(#4c51b9c0ea)"><path fill="#1f894c" d="M 73.066406 12.929688 C 82.9375 16.753906 89.3125 23.613281 92.417969 27.699219 C 96.710938 28.496094 105.917969 30.652344 113.808594 35.410156 L 119.191406 30.757812 C 107.976562 18.394531 91.996094 10.789062 74.832031 10.320312 C 74.273438 11.359375 73.636719 12.253906 73.066406 12.929688 Z M 73.066406 12.929688 " fill-opacity="1" fill-rule="nonzero"/></g></g></g><g clip-path="url(#818c8e24f8)"><g clip-path="url(#aaa930a874)"><g clip-path="url(#ea5ab5a233)"><path fill="#1f894c" d="M 121.007812 60.03125 C 128.3125 69.945312 130.960938 77.136719 131.894531 80.625 C 132.792969 80.445312 133.839844 80.242188 134.769531 80.078125 C 135.570312 73.675781 135.394531 67.046875 134.078125 60.382812 C 132.019531 49.949219 127.441406 40.644531 121.109375 32.96875 L 115.875 37.492188 C 117.121094 40.15625 120.019531 47.515625 121.007812 60.03125 Z M 121.007812 60.03125 " fill-opacity="1" fill-rule="nonzero"/></g></g></g><g clip-path="url(#d035febe52)"><g clip-path="url(#d172edb4e5)"><g clip-path="url(#c5b04d6557)"><path fill="#1f894c" d="M 61.015625 121.277344 C 60.433594 121.378906 59.847656 121.484375 59.191406 121.597656 C 47.796875 123.554688 40.679688 122.898438 36.714844 122.019531 L 36.65625 122.671875 C 49.792969 132.199219 66.59375 136.585938 83.71875 133.617188 L 82.601562 127.964844 C 79.03125 127.574219 70.492188 126.179688 61.015625 121.277344 Z M 61.015625 121.277344 " fill-opacity="1" fill-rule="nonzero"/></g></g></g><g clip-path="url(#3282de6a30)"><g clip-path="url(#aef3787b76)"><g clip-path="url(#193c4f0f2f)"><path fill="#1f894c" d="M 100.316406 68.613281 C 98.199219 80.65625 94.675781 89.117188 91.941406 94.285156 C 94.179688 97.210938 99.253906 103.769531 103.910156 109.3125 C 115.671875 106.152344 121.707031 101.644531 123.96875 99.597656 C 125.175781 97.136719 127.945312 90.960938 129.46875 83.21875 C 129.359375 82.46875 128.0625 75.054688 119.6875 63.226562 C 116.441406 63.894531 108.382812 65.703125 100.316406 68.613281 Z M 100.316406 68.613281 " fill-opacity="1" fill-rule="nonzero"/></g></g></g><g clip-path="url(#d85b3675b1)"><g clip-path="url(#ab816366dd)"><g clip-path="url(#e542dc1fd9)"><path fill="#1f894c" d="M 85.488281 127.5 L 86.585938 133.050781 C 103.414062 129.320312 117.191406 119.011719 125.742188 105.375 L 124.503906 102.96875 C 121.203125 105.574219 114.71875 109.5625 103.753906 112.375 C 100.914062 115.5625 93.941406 122.800781 85.488281 127.5 Z M 85.488281 127.5 " fill-opacity="1" fill-rule="nonzero"/></g></g></g></g></g></g></svg>