<svg xmlns="http://www.w3.org/2000/svg" xmlns:xlink="http://www.w3.org/1999/xlink" width="500" zoomAndPan="magnify" viewBox="0 0 375 374.999991" height="500" preserveAspectRatio="xMidYMid meet" version="1.0"><defs><filter x="0%" y="0%" width="100%" height="100%" id="4d33de3e3b"><feColorMatrix values="0 0 0 0 1 0 0 0 0 1 0 0 0 0 1 0 0 0 1 0" color-interpolation-filters="sRGB"/></filter><mask id="348947380a"><g filter="url(#4d33de3e3b)"><rect x="-37.5" width="450" fill="#000000" y="-37.499999" height="449.999989" fill-opacity="0.19"/></g></mask><clipPath id="ab2b4fc535"><path d="M 65 168 L 140 168 L 140 189.039062 L 65 189.039062 Z M 65 168 " clip-rule="nonzero"/></clipPath><clipPath id="888579884c"><path d="M 1.546875 26 L 33 26 L 33 93 L 1.546875 93 Z M 1.546875 26 " clip-rule="nonzero"/></clipPath><clipPath id="ec3c027ae6"><path d="M 1.546875 97 L 35 97 L 35 164 L 1.546875 164 Z M 1.546875 97 " clip-rule="nonzero"/></clipPath><clipPath id="e5032d86c4"><rect x="0" width="189" y="0" height="190"/></clipPath><mask id="025f010828"><g filter="url(#4d33de3e3b)"><rect x="-37.5" width="450" fill="#000000" y="-37.499999" height="449.999989" fill-opacity="0.19"/></g></mask><clipPath id="977e377e73"><path d="M 14 16 L 51 16 L 51 55 L 14 55 Z M 14 16 " clip-rule="nonzero"/></clipPath><clipPath id="78e30facb9"><path d="M 23.855469 146.105469 L 0.03125 25.433594 L 122.90625 1.171875 L 146.734375 121.84375 Z M 23.855469 146.105469 " clip-rule="nonzero"/></clipPath><clipPath id="3094031cb2"><path d="M 23.855469 146.105469 L 0.03125 25.433594 L 122.90625 1.171875 L 146.734375 121.84375 Z M 23.855469 146.105469 " clip-rule="nonzero"/></clipPath><clipPath id="0f0216ec2c"><path d="M 23 80 L 63 80 L 63 121 L 23 121 Z M 23 80 " clip-rule="nonzero"/></clipPath><clipPath id="0b869c248c"><path d="M 23.855469 146.105469 L 0.03125 25.433594 L 122.90625 1.171875 L 146.734375 121.84375 Z M 23.855469 146.105469 " clip-rule="nonzero"/></clipPath><clipPath id="1af3388b5c"><path d="M 23.855469 146.105469 L 0.03125 25.433594 L 122.90625 1.171875 L 146.734375 121.84375 Z M 23.855469 146.105469 " clip-rule="nonzero"/></clipPath><clipPath id="64199b6e8f"><path d="M 11 55 L 25 55 L 25 104 L 11 104 Z M 11 55 " clip-rule="nonzero"/></clipPath><clipPath id="316e381724"><path d="M 23.855469 146.105469 L 0.03125 25.433594 L 122.90625 1.171875 L 146.734375 121.84375 Z M 23.855469 146.105469 " clip-rule="nonzero"/></clipPath><clipPath id="d6ed2be0ef"><path d="M 23.855469 146.105469 L 0.03125 25.433594 L 122.90625 1.171875 L 146.734375 121.84375 Z M 23.855469 146.105469 " clip-rule="nonzero"/></clipPath><clipPath id="8e1a919931"><path d="M 41 15 L 90 15 L 90 52 L 41 52 Z M 41 15 " clip-rule="nonzero"/></clipPath><clipPath id="ccb7abb291"><path d="M 23.855469 146.105469 L 0.03125 25.433594 L 122.90625 1.171875 L 146.734375 121.84375 Z M 23.855469 146.105469 " clip-rule="nonzero"/></clipPath><clipPath id="309b804b32"><path d="M 23.855469 146.105469 L 0.03125 25.433594 L 122.90625 1.171875 L 146.734375 121.84375 Z M 23.855469 146.105469 " clip-rule="nonzero"/></clipPath><clipPath id="6cbe651468"><path d="M 47 48 L 98 48 L 98 100 L 47 100 Z M 47 48 " clip-rule="nonzero"/></clipPath><clipPath id="74665be11b"><path d="M 23.855469 146.105469 L 0.03125 25.433594 L 122.90625 1.171875 L 146.734375 121.84375 Z M 23.855469 146.105469 " clip-rule="nonzero"/></clipPath><clipPath id="18fd0b22c1"><path d="M 23.855469 146.105469 L 0.03125 25.433594 L 122.90625 1.171875 L 146.734375 121.84375 Z M 23.855469 146.105469 " clip-rule="nonzero"/></clipPath><clipPath id="20817f9975"><path d="M 73 11 L 120 11 L 120 37 L 73 37 Z M 73 11 " clip-rule="nonzero"/></clipPath><clipPath id="add9613a82"><path d="M 23.855469 146.105469 L 0.03125 25.433594 L 122.90625 1.171875 L 146.734375 121.84375 Z M 23.855469 146.105469 " clip-rule="nonzero"/></clipPath><clipPath id="d661ae96e0"><path d="M 23.855469 146.105469 L 0.03125 25.433594 L 122.90625 1.171875 L 146.734375 121.84375 Z M 23.855469 146.105469 " clip-rule="nonzero"/></clipPath><clipPath id="ebc6d08dad"><path d="M 115 33 L 136 33 L 136 82 L 115 82 Z M 115 33 " clip-rule="nonzero"/></clipPath><clipPath id="00f4c24ff2"><path d="M 23.855469 146.105469 L 0.03125 25.433594 L 122.90625 1.171875 L 146.734375 121.84375 Z M 23.855469 146.105469 " clip-rule="nonzero"/></clipPath><clipPath id="9700382cfa"><path d="M 23.855469 146.105469 L 0.03125 25.433594 L 122.90625 1.171875 L 146.734375 121.84375 Z M 23.855469 146.105469 " clip-rule="nonzero"/></clipPath><clipPath id="695fb2fa7f"><path d="M 36 122 L 84 122 L 84 136 L 36 136 Z M 36 122 " clip-rule="nonzero"/></clipPath><clipPath id="65af40532f"><path d="M 23.855469 146.105469 L 0.03125 25.433594 L 122.90625 1.171875 L 146.734375 121.84375 Z M 23.855469 146.105469 " clip-rule="nonzero"/></clipPath><clipPath id="07a4cabf84"><path d="M 23.855469 146.105469 L 0.03125 25.433594 L 122.90625 1.171875 L 146.734375 121.84375 Z M 23.855469 146.105469 " clip-rule="nonzero"/></clipPath><clipPath id="45bceb475b"><path d="M 91 63 L 130 63 L 130 111 L 91 111 Z M 91 63 " clip-rule="nonzero"/></clipPath><clipPath id="6aeb7cc518"><path d="M 23.855469 146.105469 L 0.03125 25.433594 L 122.90625 1.171875 L 146.734375 121.84375 Z M 23.855469 146.105469 " clip-rule="nonzero"/></clipPath><clipPath id="1600a318b7"><path d="M 23.855469 146.105469 L 0.03125 25.433594 L 122.90625 1.171875 L 146.734375 121.84375 Z M 23.855469 146.105469 " clip-rule="nonzero"/></clipPath><clipPath id="5a0d8ae9f7"><path d="M 85 103 L 126 103 L 126 134 L 85 134 Z M 85 103 " clip-rule="nonzero"/></clipPath><clipPath id="caab6ddea3"><path d="M 23.855469 146.105469 L 0.03125 25.433594 L 122.90625 1.171875 L 146.734375 121.84375 Z M 23.855469 146.105469 " clip-rule="nonzero"/></clipPath><clipPath id="b5dad6b8ed"><path d="M 23.855469 146.105469 L 0.03125 25.433594 L 122.90625 1.171875 L 146.734375 121.84375 Z M 23.855469 146.105469 " clip-rule="nonzero"/></clipPath><clipPath id="1f06f9c5fb"><rect x="0" width="147" y="0" height="148"/></clipPath></defs><g mask="url(#348947380a)"><g transform="matrix(1, 0, 0, 1, 48, 164)"><g clip-path="url(#e5032d86c4)"><path fill="#1f894c" d="M 147.683594 37.453125 C 150.730469 42.613281 153.441406 48.246094 155.210938 52.144531 C 162.050781 55.90625 175.121094 64.28125 183.609375 77.109375 C 184.640625 76.039062 185.890625 75.027344 186.964844 74.246094 C 181.199219 48.863281 165.148438 27.351562 143.417969 14.359375 L 138.058594 23.582031 C 140.160156 26.195312 144.027344 31.257812 147.683594 37.453125 Z M 147.683594 37.453125 " fill-opacity="1" fill-rule="nonzero"/><path fill="#1f894c" d="M 30.878906 60.4375 C 35.472656 62.625 47.886719 68.457031 55.902344 71.421875 L 92.742188 50.898438 C 93.238281 47.875 94.003906 42.742188 94.605469 36.554688 C 95.207031 30.328125 95.351562 26.082031 95.371094 23.761719 C 91.160156 21.238281 76.976562 13.398438 62.054688 12.425781 C 51.40625 16.417969 40.960938 23.796875 37.316406 26.507812 C 35.105469 30.835938 31.363281 40.894531 30.886719 60.089844 C 30.882812 60.214844 30.882812 60.3125 30.878906 60.4375 Z M 30.878906 60.4375 " fill-opacity="1" fill-rule="nonzero"/><path fill="#1f894c" d="M 99.066406 20.910156 C 102.585938 20.324219 108.433594 19.597656 115.902344 19.597656 C 123.804688 19.597656 130.890625 20.640625 134.304688 21.238281 L 139.570312 12.179688 C 126.382812 5.113281 111.332031 1.09375 95.351562 1.09375 C 85.085938 1.09375 75.207031 2.773438 65.949219 5.832031 L 65.046875 8.265625 C 82.808594 10.28125 98.371094 20.386719 99.097656 20.863281 Z M 99.066406 20.910156 " fill-opacity="1" fill-rule="nonzero"/><path fill="#1f894c" d="M 155.582031 132.011719 C 163.152344 128.003906 175.539062 119.542969 182.859375 104.703125 C 184.019531 97.03125 183.171875 88.710938 182.460938 83.914062 C 175.882812 71.347656 163.828125 62.488281 156.085938 57.796875 C 154.394531 58.847656 150.980469 61.058594 145.71875 64.894531 C 140.589844 68.632812 135.90625 72.3125 133.273438 74.414062 C 134.039062 84.261719 134.894531 101.214844 133.339844 115.886719 Z M 155.582031 132.011719 " fill-opacity="1" fill-rule="nonzero"/><path fill="#1f894c" d="M 94.445312 55.011719 L 58.972656 74.773438 C 58.878906 77.90625 58.738281 84.257812 58.808594 93.523438 C 58.886719 103.601562 59.355469 109.613281 59.691406 112.683594 C 66.175781 118.007812 77.441406 125.6875 94.375 132.289062 C 100.644531 129.507812 120.832031 120.453125 128.90625 115.707031 C 130.433594 101.460938 129.59375 84.582031 128.851562 74.808594 C 125.410156 72.652344 118.542969 68.386719 112.625 64.976562 C 106.519531 61.460938 98.324219 57.070312 94.445312 55.011719 Z M 94.445312 55.011719 " fill-opacity="1" fill-rule="nonzero"/><path fill="#1f894c" d="M 183.628906 112.402344 C 175.0625 125.925781 163.015625 133.371094 156.046875 136.785156 C 153.605469 142.921875 147.710938 155.949219 138.335938 166.261719 L 143.664062 175.613281 C 165.292969 162.59375 181.257812 141.113281 186.984375 115.785156 C 185.601562 114.648438 184.464844 113.445312 183.628906 112.402344 Z M 183.628906 112.402344 " fill-opacity="1" fill-rule="nonzero"/><g clip-path="url(#ab2b4fc535)"><path fill="#1f894c" d="M 99.699219 169.730469 C 82.855469 177.664062 71.410156 179.488281 65.957031 179.847656 C 65.960938 181.238281 65.957031 182.851562 65.925781 184.277344 C 75.191406 187.339844 85.074219 189.023438 95.351562 189.023438 C 111.429688 189.023438 126.578125 184.957031 139.824219 177.808594 L 134.644531 168.71875 C 130.328125 169.789062 118.558594 171.933594 99.699219 169.730469 Z M 99.699219 169.730469 " fill-opacity="1" fill-rule="nonzero"/></g><g clip-path="url(#888579884c)"><path fill="#1f894c" d="M 26.40625 62.78125 C 26.421875 61.886719 26.4375 60.988281 26.464844 59.980469 C 26.898438 42.5 29.957031 32.132812 32.421875 26.507812 L 31.476562 26.230469 C 13.492188 42.933594 2.054688 66.570312 1.445312 92.847656 L 10.160156 92.847656 C 11.78125 87.667969 16.355469 75.40625 26.40625 62.78125 Z M 26.40625 62.78125 " fill-opacity="1" fill-rule="nonzero"/></g><path fill="#1f894c" d="M 93.03125 136.519531 C 75.78125 129.851562 64.261719 122.144531 57.390625 116.570312 C 52.398438 119.035156 41.183594 124.644531 31.589844 129.925781 C 32.832031 148.300781 37.757812 158.578125 40.132812 162.53125 C 43.425781 165.042969 51.777344 170.960938 62.820312 175.492188 C 63.964844 175.550781 75.34375 175.792969 95.347656 166.839844 C 95.304688 161.824219 94.984375 149.339844 93.03125 136.519531 Z M 93.03125 136.519531 " fill-opacity="1" fill-rule="nonzero"/><g clip-path="url(#ec3c027ae6)"><path fill="#1f894c" d="M 10 97.269531 L 1.445312 97.269531 C 2.050781 123.332031 13.308594 146.792969 31.039062 163.472656 L 34.972656 162.339844 C 32.074219 156.679688 28.054688 145.894531 27.09375 128.800781 C 23.199219 123.652344 14.5 111.183594 10 97.269531 Z M 10 97.269531 " fill-opacity="1" fill-rule="nonzero"/></g></g></g></g><g mask="url(#025f010828)"><g transform="matrix(1, 0, 0, 1, 179, 20)"><g clip-path="url(#1f06f9c5fb)"><g clip-path="url(#977e377e73)"><g clip-path="url(#78e30facb9)"><g clip-path="url(#3094031cb2)"><path fill="#1f894c" d="M 29.0625 46.578125 C 32.019531 43.941406 35.328125 41.460938 37.628906 39.8125 C 39.195312 34.894531 42.949219 25.34375 50.1875 18.191406 C 49.359375 17.660156 48.542969 16.980469 47.898438 16.382812 C 32.171875 23.375 20.273438 36.542969 14.628906 52.300781 L 21.296875 54.597656 C 22.722656 52.902344 25.511719 49.746094 29.0625 46.578125 Z M 29.0625 46.578125 " fill-opacity="1" fill-rule="nonzero"/></g></g></g><g clip-path="url(#0f0216ec2c)"><g clip-path="url(#0b869c248c)"><g clip-path="url(#1af3388b5c)"><path fill="#1f894c" d="M 58.933594 119.40625 C 59.765625 116.144531 61.957031 107.347656 62.855469 101.769531 L 44.820312 80.496094 C 42.796875 80.5625 39.371094 80.722656 35.277344 81.125 C 31.160156 81.53125 28.390625 81.984375 26.882812 82.269531 C 25.785156 85.320312 22.515625 95.527344 23.796875 105.332031 C 27.75 111.726562 33.875 117.558594 36.097656 119.578125 C 39.1875 120.457031 46.195312 121.597656 58.707031 119.445312 C 58.789062 119.433594 58.851562 119.421875 58.933594 119.40625 Z M 58.933594 119.40625 " fill-opacity="1" fill-rule="nonzero"/></g></g></g><g clip-path="url(#64199b6e8f)"><g clip-path="url(#316e381724)"><g clip-path="url(#d6ed2be0ef)"><path fill="#1f894c" d="M 24.558594 80.234375 C 23.726562 78.027344 22.507812 74.328125 21.550781 69.484375 C 20.539062 64.355469 20.308594 59.625 20.257812 57.335938 L 13.707031 55.078125 C 10.8125 64.539062 10.132812 74.816406 12.179688 85.183594 C 13.496094 91.84375 15.847656 98.035156 19.019531 103.648438 L 20.710938 103.925781 C 19.746094 92.144531 24.308594 80.753906 24.523438 80.222656 Z M 24.558594 80.234375 " fill-opacity="1" fill-rule="nonzero"/></g></g></g><g clip-path="url(#8e1a919931)"><g clip-path="url(#ccb7abb291)"><g clip-path="url(#309b804b32)"><path fill="#1f894c" d="M 89.390625 29.339844 C 85.824219 24.945312 78.746094 17.992188 68.183594 15.144531 C 63.058594 15.375 57.765625 16.992188 54.746094 18.066406 C 47.4375 23.941406 43.238281 32.898438 41.183594 38.523438 C 42.082031 39.484375 43.953125 41.417969 47.117188 44.339844 C 50.199219 47.1875 53.183594 49.753906 54.886719 51.191406 C 61.175781 49.433594 72.066406 46.707031 81.78125 45.835938 Z M 89.390625 29.339844 " fill-opacity="1" fill-rule="nonzero"/></g></g></g><g clip-path="url(#6cbe651468)"><g clip-path="url(#74665be11b)"><g clip-path="url(#18fd0b22c1)"><path fill="#1f894c" d="M 47.273438 78.863281 L 64.636719 99.34375 C 66.679688 99.007812 70.820312 98.285156 76.820312 97.050781 C 83.347656 95.710938 87.1875 94.636719 89.136719 94.023438 C 91.757812 89.132812 95.296875 80.84375 97.410156 69.015625 C 94.804688 65.304688 86.347656 53.363281 82.234375 48.734375 C 72.792969 49.570312 61.953125 52.277344 55.707031 54.011719 C 54.75 56.519531 52.859375 61.519531 51.410156 65.796875 C 49.910156 70.207031 48.113281 76.085938 47.273438 78.863281 Z M 47.273438 78.863281 " fill-opacity="1" fill-rule="nonzero"/></g></g></g><g clip-path="url(#20817f9975)"><g clip-path="url(#add9613a82)"><g clip-path="url(#d661ae96e0)"><path fill="#1f894c" d="M 73.078125 13.660156 C 82.949219 17.484375 89.324219 24.34375 92.429688 28.429688 C 96.722656 29.226562 105.929688 31.382812 113.820312 36.144531 L 119.203125 31.488281 C 107.988281 19.125 92.007812 11.519531 74.84375 11.050781 C 74.285156 12.09375 73.648438 12.984375 73.078125 13.660156 Z M 73.078125 13.660156 " fill-opacity="1" fill-rule="nonzero"/></g></g></g><g clip-path="url(#ebc6d08dad)"><g clip-path="url(#00f4c24ff2)"><g clip-path="url(#9700382cfa)"><path fill="#1f894c" d="M 121.019531 60.765625 C 128.324219 70.675781 130.972656 77.867188 131.90625 81.355469 C 132.804688 81.175781 133.851562 80.972656 134.78125 80.808594 C 135.582031 74.40625 135.40625 67.777344 134.089844 61.113281 C 132.03125 50.679688 127.453125 41.378906 121.121094 33.699219 L 115.886719 38.222656 C 117.132812 40.886719 120.03125 48.246094 121.019531 60.765625 Z M 121.019531 60.765625 " fill-opacity="1" fill-rule="nonzero"/></g></g></g><g clip-path="url(#695fb2fa7f)"><g clip-path="url(#65af40532f)"><g clip-path="url(#07a4cabf84)"><path fill="#1f894c" d="M 61.027344 122.007812 C 60.445312 122.113281 59.859375 122.21875 59.203125 122.328125 C 47.808594 124.289062 40.691406 123.628906 36.726562 122.75 L 36.667969 123.402344 C 49.804688 132.929688 66.605469 137.320312 83.730469 134.351562 L 82.613281 128.695312 C 79.042969 128.308594 70.503906 126.910156 61.027344 122.007812 Z M 61.027344 122.007812 " fill-opacity="1" fill-rule="nonzero"/></g></g></g><g clip-path="url(#45bceb475b)"><g clip-path="url(#6aeb7cc518)"><g clip-path="url(#1600a318b7)"><path fill="#1f894c" d="M 100.328125 69.34375 C 98.210938 81.386719 94.6875 89.847656 91.953125 95.019531 C 94.191406 97.941406 99.265625 104.5 103.921875 110.046875 C 115.683594 106.886719 121.71875 102.375 123.976562 100.328125 C 125.1875 97.871094 127.957031 91.695312 129.480469 83.949219 C 129.371094 83.199219 128.074219 75.785156 119.699219 63.957031 C 116.453125 64.628906 108.394531 66.433594 100.328125 69.34375 Z M 100.328125 69.34375 " fill-opacity="1" fill-rule="nonzero"/></g></g></g><g clip-path="url(#5a0d8ae9f7)"><g clip-path="url(#caab6ddea3)"><g clip-path="url(#b5dad6b8ed)"><path fill="#1f894c" d="M 85.5 128.234375 L 86.597656 133.785156 C 103.425781 130.050781 117.203125 119.746094 125.753906 106.105469 L 124.515625 103.699219 C 121.214844 106.304688 114.730469 110.292969 103.765625 113.105469 C 100.925781 116.292969 93.953125 123.53125 85.5 128.234375 Z M 85.5 128.234375 " fill-opacity="1" fill-rule="nonzero"/></g></g></g></g></g></g></svg>