<svg xmlns="http://www.w3.org/2000/svg" xmlns:xlink="http://www.w3.org/1999/xlink" width="500" zoomAndPan="magnify" viewBox="0 0 375 374.999991" height="500" preserveAspectRatio="xMidYMid meet" version="1.0"><defs><clipPath id="c36e6f2f31"><path d="M 0.15625 0 L 375 0 L 375 375 L 0.15625 375 Z M 0.15625 0 " clip-rule="nonzero"/></clipPath></defs><path fill="#ffffff" d="M 372.113281 187.359375 C 372.113281 251.707031 339.175781 308.351562 289.230469 341.359375 C 260.097656 360.621094 225.175781 371.839844 187.632812 371.839844 C 150.078125 371.839844 115.15625 360.621094 86.023438 341.359375 C 36.089844 308.351562 3.148438 251.695312 3.148438 187.359375 C 3.148438 85.46875 85.742188 2.878906 187.628906 2.878906 C 289.519531 2.878906 372.113281 85.46875 372.113281 187.359375 " fill-opacity="1" fill-rule="nonzero"/><g clip-path="url(#c36e6f2f31)"><path fill="#1f894c" d="M 187.632812 5.816406 C 87.527344 5.816406 6.089844 87.253906 6.089844 187.359375 C 6.085938 248.488281 36.578125 305.15625 87.644531 338.902344 C 117.316406 358.53125 151.898438 368.90625 187.632812 368.90625 C 223.367188 368.90625 257.9375 358.53125 287.609375 338.902344 C 338.683594 305.15625 369.179688 248.5 369.179688 187.359375 C 369.179688 87.253906 287.738281 5.816406 187.632812 5.816406 Z M 187.632812 374.777344 C 150.738281 374.777344 115.039062 364.066406 84.402344 343.8125 C 31.691406 308.960938 0.210938 250.476562 0.210938 187.359375 C 0.210938 84.011719 84.285156 -0.0585938 187.628906 -0.0585938 C 290.964844 -0.0546875 375.046875 84.011719 375.046875 187.359375 C 375.046875 250.476562 343.566406 308.960938 290.847656 343.8125 C 260.210938 364.066406 224.515625 374.777344 187.628906 374.777344 " fill-opacity="1" fill-rule="nonzero"/></g><path fill="#1f894c" d="M 273.679688 170.210938 C 266.242188 178.289062 268.214844 182.285156 275.582031 188.875 C 283.015625 195.511719 281.6875 204.839844 273.511719 211.179688 C 266.136719 216.890625 256.714844 218.628906 256.058594 229.53125 C 255.539062 237.941406 262.71875 248.382812 256.480469 255.84375 C 249.75 263.902344 238.625 255.582031 230.800781 258.4375 C 223.003906 261.292969 222.414062 275.882812 213.148438 273.121094 C 208.8125 271.828125 206.441406 267.683594 201.4375 267.117188 C 197.476562 266.671875 192.824219 268.457031 189.242188 270.183594 C 185.296875 272.085938 182.054688 274.882812 177.800781 271.394531 C 174.054688 268.316406 176.285156 264.101562 170.273438 263.570312 C 166.136719 263.195312 161.578125 267.566406 156.796875 267.117188 C 150.890625 266.566406 150.75 263.40625 149.128906 258.308594 C 145.910156 248.207031 136.816406 247.996094 127.433594 245.363281 C 118.679688 242.933594 110.28125 235.835938 110.398438 226.003906 C 110.492188 217.488281 120.148438 208.972656 115.683594 200.164062 C 113.980469 196.816406 108.742188 194.511719 106.441406 191.234375 C 103.386719 186.890625 103.339844 183.105469 103.351562 177.84375 C 103.363281 168.894531 105.089844 158.613281 110.257812 151.402344 C 122.851562 133.78125 149.515625 125.757812 169.847656 120.875 C 183.570312 117.574219 194.800781 116.738281 207.898438 122.496094 C 218.46875 127.121094 228.488281 130.433594 238.296875 136.894531 C 246.636719 142.382812 253.519531 145.683594 260.886719 152.449219 C 265.632812 156.804688 274.839844 165.226562 274.851562 171.382812 " fill-opacity="1" fill-rule="nonzero"/><path fill="#1f894c" d="M 200.15625 264.113281 C 200.707031 264.113281 201.234375 264.136719 201.753906 264.207031 C 205.347656 264.605469 207.777344 266.378906 209.929688 267.953125 C 211.351562 268.988281 212.582031 269.890625 213.992188 270.300781 C 216.71875 271.125 217.929688 269.855469 220.992188 264.757812 C 223.097656 261.246094 225.480469 257.261719 229.792969 255.691406 C 233.703125 254.257812 237.886719 255.007812 241.925781 255.738281 C 247.753906 256.792969 251.453125 257.273438 254.226562 253.960938 C 257.246094 250.34375 256.058594 245.515625 254.671875 239.925781 C 253.800781 236.449219 252.910156 232.84375 253.121094 229.351562 C 253.695312 219.792969 260.179688 215.972656 265.902344 212.601562 C 267.875 211.453125 269.90625 210.265625 271.714844 208.855469 C 275.347656 206.035156 277.402344 202.59375 277.53125 199.164062 C 277.625 196.238281 276.285156 193.433594 273.621094 191.058594 C 269.109375 187.019531 266.265625 183.671875 266.054688 179.464844 C 265.890625 176.082031 267.464844 172.710938 271.164062 168.601562 C 268.921875 163.808594 262.15625 157.605469 258.960938 154.65625 C 253.898438 150.003906 249.1875 147.125 243.734375 143.777344 C 241.492188 142.40625 239.15625 140.972656 236.6875 139.351562 C 229.605469 134.675781 222.378906 131.703125 214.734375 128.554688 C 212.125 127.476562 209.433594 126.371094 206.710938 125.183594 C 194.269531 119.722656 183.640625 120.578125 170.53125 123.726562 C 149.796875 128.71875 124.484375 136.566406 112.644531 153.105469 C 107.132812 160.8125 106.300781 171.914062 106.289062 177.84375 C 106.277344 183.128906 106.394531 186.042969 108.847656 189.542969 C 109.660156 190.695312 111.1875 191.882812 112.679688 193.03125 C 114.839844 194.710938 117.082031 196.449219 118.292969 198.835938 C 121.617188 205.378906 118.773438 211.535156 116.273438 216.960938 C 114.769531 220.191406 113.371094 223.246094 113.335938 226.039062 C 113.230469 234.546875 120.738281 240.453125 128.21875 242.546875 C 129.769531 242.980469 131.355469 243.355469 132.871094 243.707031 C 140.683594 245.550781 148.753906 247.46875 151.921875 257.417969 C 152.136719 258.0625 152.3125 258.671875 152.488281 259.25 C 153.652344 263.183594 153.863281 263.902344 157.070312 264.195312 C 158.785156 264.359375 160.769531 263.488281 162.847656 262.574219 C 165.28125 261.503906 167.78125 260.398438 170.53125 260.636719 C 175.96875 261.117188 177.191406 264.3125 178 266.414062 C 178.449219 267.554688 178.765625 268.375 179.65625 269.117188 C 181.644531 270.75 182.78125 270.277344 186.070312 268.515625 C 186.695312 268.1875 187.316406 267.847656 187.960938 267.542969 C 192.71875 265.238281 196.726562 264.113281 200.15625 264.113281 Z M 215.402344 276.410156 C 214.449219 276.410156 213.429688 276.269531 212.3125 275.929688 C 209.929688 275.222656 208.097656 273.875 206.464844 272.699219 C 204.679688 271.394531 203.140625 270.265625 201.105469 270.03125 C 198.5 269.738281 194.941406 270.691406 190.523438 272.828125 C 189.949219 273.109375 189.382812 273.414062 188.832031 273.707031 C 185.542969 275.460938 181.03125 277.855469 175.933594 273.660156 C 173.84375 271.945312 173.078125 269.960938 172.515625 268.527344 C 171.871094 266.824219 171.800781 266.648438 170.011719 266.484375 C 168.769531 266.378906 167.042969 267.140625 165.222656 267.941406 C 162.660156 269.070312 159.769531 270.347656 156.515625 270.042969 C 149.363281 269.375 148.082031 265.074219 146.847656 260.929688 C 146.695312 260.375 146.519531 259.800781 146.332031 259.203125 C 144.265625 252.730469 139.601562 251.332031 131.53125 249.429688 C 129.945312 249.050781 128.300781 248.664062 126.644531 248.195312 C 116.988281 245.515625 107.320312 237.589844 107.460938 225.96875 C 107.507812 221.929688 109.25 218.160156 110.941406 214.503906 C 113.171875 209.679688 115.097656 205.496094 113.066406 201.492188 C 112.441406 200.292969 110.738281 198.964844 109.082031 197.671875 C 107.25 196.261719 105.359375 194.792969 104.042969 192.925781 C 100.402344 187.734375 100.402344 183.152344 100.414062 177.84375 C 100.425781 171.207031 101.402344 158.722656 107.863281 149.6875 C 120.832031 131.5625 147.4375 123.246094 169.167969 118.019531 C 183.050781 114.683594 195.164062 113.695312 209.070312 119.804688 C 211.726562 120.96875 214.390625 122.058594 216.964844 123.117188 C 224.882812 126.382812 232.363281 129.460938 239.917969 134.441406 C 242.3125 136.015625 244.59375 137.425781 246.8125 138.773438 C 252.289062 142.132812 257.445312 145.304688 262.871094 150.285156 C 270.105469 156.921875 277.777344 164.535156 277.789062 171.382812 C 277.789062 173.003906 276.472656 174.320312 274.851562 174.320312 C 274.59375 174.320312 274.347656 174.285156 274.113281 174.226562 C 272.574219 176.222656 271.855469 177.855469 271.925781 179.171875 C 272.011719 181.027344 273.644531 183.199219 277.542969 186.679688 C 281.476562 190.203125 283.558594 194.710938 283.390625 199.375 C 283.214844 204.578125 280.351562 209.597656 275.3125 213.496094 C 273.207031 215.128906 271.011719 216.421875 268.886719 217.664062 C 263.363281 220.917969 259.382812 223.257812 258.984375 229.707031 C 258.832031 232.300781 259.582031 235.320312 260.367188 238.515625 C 261.917969 244.753906 263.667969 251.824219 258.734375 257.722656 C 253.636719 263.832031 246.566406 262.550781 240.882812 261.515625 C 237.460938 260.894531 234.234375 260.316406 231.8125 261.199219 C 229.453125 262.066406 227.796875 264.839844 226.035156 267.777344 C 223.789062 271.5 220.851562 276.410156 215.402344 276.410156 " fill-opacity="1" fill-rule="nonzero"/><path fill="#1f894c" d="M 289.230469 341.359375 C 260.097656 360.621094 225.175781 371.839844 187.632812 371.839844 C 150.078125 371.839844 115.15625 360.621094 86.023438 341.359375 C 93.941406 318.957031 109.070312 299.949219 128.617188 287.136719 C 138.53125 280.628906 149.585938 275.71875 161.414062 272.769531 C 166.347656 271.523438 171.410156 270.632812 176.589844 270.113281 C 180.222656 269.738281 183.910156 269.550781 187.632812 269.550781 C 188.609375 269.550781 189.570312 269.5625 190.535156 269.585938 C 192.871094 269.644531 195.199219 269.785156 197.488281 269.996094 C 198.054688 270.042969 198.617188 270.101562 199.167969 270.160156 C 199.519531 270.195312 199.875 270.230469 200.214844 270.277344 C 200.601562 270.324219 200.976562 270.371094 201.367188 270.417969 C 201.601562 270.441406 201.847656 270.480469 202.082031 270.515625 C 202.421875 270.550781 202.773438 270.609375 203.128906 270.65625 C 203.398438 270.691406 203.667969 270.738281 203.949219 270.773438 L 204.195312 270.808594 C 204.75 270.902344 205.289062 270.984375 205.839844 271.078125 L 205.851562 271.078125 C 206.710938 271.230469 207.554688 271.382812 208.402344 271.546875 C 209.164062 271.699219 209.929688 271.851562 210.691406 272.015625 C 210.773438 272.039062 210.855469 272.050781 210.9375 272.074219 C 211.089844 272.109375 211.257812 272.148438 211.410156 272.183594 C 211.738281 272.253906 212.054688 272.324219 212.382812 272.40625 C 212.488281 272.429688 212.605469 272.453125 212.710938 272.488281 C 212.925781 272.535156 213.136719 272.582031 213.335938 272.640625 C 213.511719 272.675781 213.6875 272.722656 213.863281 272.757812 C 213.910156 272.769531 213.957031 272.78125 213.992188 272.792969 C 214.027344 272.804688 214.0625 272.804688 214.085938 272.816406 C 214.109375 272.828125 214.144531 272.828125 214.167969 272.839844 C 214.652344 272.957031 215.121094 273.085938 215.589844 273.214844 C 215.8125 273.261719 216.023438 273.320312 216.238281 273.390625 C 216.25 273.378906 216.25 273.390625 216.25 273.390625 C 216.566406 273.472656 216.871094 273.554688 217.175781 273.648438 C 217.777344 273.816406 218.363281 273.992188 218.960938 274.167969 C 219.421875 274.308594 219.878906 274.449219 220.335938 274.601562 C 220.628906 274.695312 220.933594 274.789062 221.21875 274.882812 C 221.699219 275.035156 222.179688 275.199219 222.648438 275.363281 C 222.921875 275.460938 223.191406 275.554688 223.449219 275.648438 C 224.402344 275.976562 225.339844 276.328125 226.28125 276.679688 C 226.714844 276.855469 227.160156 277.019531 227.605469 277.210938 C 228.335938 277.492188 229.050781 277.796875 229.769531 278.101562 C 230.695312 278.488281 231.601562 278.890625 232.515625 279.3125 C 233.316406 279.675781 234.113281 280.050781 234.902344 280.441406 C 234.960938 280.464844 235.007812 280.5 235.066406 280.523438 C 235.40625 280.6875 235.746094 280.851562 236.078125 281.027344 C 236.113281 281.039062 236.136719 281.0625 236.171875 281.074219 C 236.898438 281.4375 237.605469 281.800781 238.320312 282.191406 L 238.332031 282.191406 C 238.976562 282.542969 239.636719 282.894531 240.269531 283.257812 C 240.445312 283.351562 240.609375 283.445312 240.777344 283.539062 C 241 283.671875 241.210938 283.789062 241.421875 283.90625 C 241.960938 284.222656 242.503906 284.539062 243.03125 284.867188 L 243.558594 285.183594 C 243.6875 285.253906 243.816406 285.339844 243.945312 285.421875 C 244.863281 285.972656 245.757812 286.546875 246.648438 287.136719 C 259.570312 295.605469 270.554688 306.777344 278.800781 319.851562 C 283.039062 326.558594 286.550781 333.769531 289.230469 341.359375 " fill-opacity="1" fill-rule="nonzero"/><path fill="#1f894c" d="M 89.585938 340.171875 C 118.820312 358.976562 152.675781 368.902344 187.632812 368.902344 C 222.589844 368.902344 256.433594 358.976562 285.671875 340.171875 C 283.191406 333.628906 280.054688 327.332031 276.320312 321.425781 C 268.34375 308.785156 257.539062 297.777344 245.039062 289.589844 C 244.171875 289.015625 243.3125 288.460938 242.433594 287.933594 C 242.289062 287.839844 242.230469 287.804688 242.160156 287.769531 C 242.125 287.746094 242.078125 287.722656 242.042969 287.699219 L 241.539062 287.394531 C 240.976562 287.042969 240.457031 286.734375 239.929688 286.441406 C 239.730469 286.324219 239.519531 286.207031 239.308594 286.078125 C 239.179688 286.007812 239.035156 285.925781 238.882812 285.855469 C 238.308594 285.515625 237.792969 285.242188 237.285156 284.960938 L 237.074219 284.84375 C 237.015625 284.820312 236.96875 284.796875 236.921875 284.773438 C 236.230469 284.398438 235.558594 284.046875 234.855469 283.707031 C 234.84375 283.695312 234.820312 283.683594 234.796875 283.671875 C 234.761719 283.648438 234.714844 283.636719 234.679688 283.609375 C 234.398438 283.457031 234.089844 283.316406 233.785156 283.164062 C 233.738281 283.140625 233.679688 283.117188 233.632812 283.09375 C 233.621094 283.082031 233.609375 283.082031 233.597656 283.070312 C 232.847656 282.695312 232.070312 282.332031 231.296875 281.980469 C 230.402344 281.566406 229.535156 281.179688 228.628906 280.816406 C 227.925781 280.511719 227.242188 280.214844 226.550781 279.945312 C 226.234375 279.816406 226 279.722656 225.75 279.628906 L 225.175781 279.394531 C 224.332031 279.089844 223.414062 278.738281 222.484375 278.417969 C 222.191406 278.3125 221.945312 278.230469 221.6875 278.136719 C 221.242188 277.984375 220.78125 277.820312 220.324219 277.679688 L 219.445312 277.398438 C 218.972656 277.246094 218.539062 277.105469 218.105469 276.972656 L 217.847656 276.890625 C 217.363281 276.75 216.882812 276.609375 216.402344 276.480469 C 216.097656 276.386719 215.859375 276.328125 215.625 276.269531 C 215.519531 276.246094 215.414062 276.210938 215.308594 276.175781 C 215.203125 276.140625 215.097656 276.117188 214.980469 276.082031 C 214.933594 276.070312 214.875 276.058594 214.816406 276.046875 L 214.699219 276.011719 C 214.296875 275.90625 213.886719 275.789062 213.476562 275.695312 L 213.335938 275.660156 C 213.324219 275.660156 213.324219 275.648438 213.3125 275.648438 C 213.253906 275.636719 213.207031 275.625 213.160156 275.613281 L 212.769531 275.519531 C 212.675781 275.507812 212.582031 275.484375 212.5 275.449219 C 212.371094 275.414062 212.242188 275.390625 212.125 275.367188 C 212.019531 275.339844 211.867188 275.304688 211.773438 275.269531 C 211.375 275.175781 211.078125 275.117188 210.785156 275.046875 L 210.269531 274.929688 C 210.234375 274.917969 210.1875 274.917969 210.152344 274.90625 C 210.117188 274.894531 210.070312 274.882812 210.023438 274.871094 C 209.292969 274.71875 208.554688 274.566406 207.824219 274.425781 C 207.039062 274.273438 206.242188 274.132812 205.429688 273.980469 C 205.40625 273.980469 205.371094 273.980469 205.347656 273.96875 L 203.539062 273.683594 C 203.410156 273.660156 203.234375 273.636719 203.070312 273.613281 L 202.328125 273.507812 C 202.140625 273.472656 201.964844 273.449219 201.777344 273.4375 C 201.742188 273.425781 201.695312 273.425781 201.660156 273.414062 C 201.460938 273.390625 201.257812 273.355469 201.070312 273.34375 L 199.863281 273.191406 C 199.53125 273.144531 199.25 273.121094 198.957031 273.097656 C 198.324219 273.027344 197.78125 272.96875 197.242188 272.921875 C 194.953125 272.710938 192.671875 272.570312 190.464844 272.523438 C 185.964844 272.417969 181.324219 272.570312 176.898438 273.039062 C 171.917969 273.53125 166.949219 274.402344 162.132812 275.613281 C 150.773438 278.441406 140.046875 283.140625 130.226562 289.589844 C 111.738281 301.714844 97.382812 319.601562 89.585938 340.171875 Z M 187.632812 374.777344 C 150.738281 374.777344 115.039062 364.0625 84.402344 343.8125 C 83.289062 343.0625 82.804688 341.652344 83.253906 340.382812 C 91.265625 317.699219 106.804688 297.917969 127.007812 284.679688 C 137.371094 277.878906 148.707031 272.910156 160.710938 269.914062 C 165.796875 268.632812 171.046875 267.71875 176.296875 267.1875 C 180.960938 266.707031 185.835938 266.53125 190.605469 266.648438 C 192.953125 266.707031 195.363281 266.847656 197.757812 267.070312 C 198.324219 267.117188 198.910156 267.175781 199.472656 267.238281 C 199.910156 267.285156 200.273438 267.320312 200.613281 267.367188 L 201.71875 267.507812 C 201.929688 267.519531 202.1875 267.566406 202.445312 267.601562 C 202.691406 267.625 202.925781 267.660156 203.175781 267.695312 L 206.230469 268.164062 C 206.277344 268.164062 206.324219 268.175781 206.371094 268.1875 C 207.238281 268.339844 208.097656 268.492188 208.964844 268.65625 C 209.753906 268.820312 210.527344 268.976562 211.304688 269.152344 C 211.363281 269.152344 211.433594 269.175781 211.492188 269.1875 C 211.515625 269.199219 211.574219 269.210938 211.632812 269.222656 L 212.054688 269.316406 C 212.394531 269.386719 212.734375 269.46875 213.101562 269.550781 C 213.195312 269.574219 213.324219 269.609375 213.453125 269.644531 C 213.664062 269.691406 213.863281 269.738281 214.039062 269.785156 C 214.109375 269.808594 214.191406 269.820312 214.273438 269.84375 L 214.4375 269.878906 C 214.488281 269.890625 214.535156 269.890625 214.582031 269.902344 C 214.628906 269.925781 214.6875 269.9375 214.746094 269.949219 C 214.792969 269.960938 214.839844 269.972656 214.886719 269.996094 L 214.910156 269.996094 C 215.367188 270.101562 215.800781 270.21875 216.25 270.347656 L 216.296875 270.359375 C 216.507812 270.40625 216.730469 270.464844 216.941406 270.539062 C 217 270.550781 217.058594 270.5625 217.117188 270.585938 C 217.433594 270.667969 217.742188 270.75 218.035156 270.84375 C 218.480469 270.960938 218.984375 271.113281 219.503906 271.265625 L 219.796875 271.347656 C 220.300781 271.5 220.78125 271.652344 221.265625 271.816406 L 222.144531 272.097656 C 222.613281 272.242188 223.121094 272.417969 223.613281 272.59375 C 223.894531 272.6875 224.175781 272.78125 224.460938 272.886719 C 225.375 273.203125 226.351562 273.566406 227.3125 273.933594 L 227.890625 274.15625 C 228.171875 274.273438 228.464844 274.378906 228.746094 274.507812 C 229.429688 274.765625 230.167969 275.082031 230.921875 275.398438 C 231.859375 275.789062 232.800781 276.199219 233.75 276.644531 C 234.5625 277.019531 235.382812 277.398438 236.195312 277.808594 C 236.242188 277.832031 236.300781 277.855469 236.335938 277.878906 C 236.710938 278.054688 237.074219 278.230469 237.414062 278.417969 C 237.4375 278.417969 237.449219 278.429688 237.460938 278.429688 C 237.460938 278.441406 237.472656 278.441406 237.488281 278.441406 C 238.191406 278.796875 238.871094 279.148438 239.566406 279.523438 C 239.625 279.558594 239.683594 279.582031 239.730469 279.605469 L 240.082031 279.804688 C 240.632812 280.097656 241.199219 280.40625 241.738281 280.710938 C 241.855469 280.769531 242.042969 280.886719 242.230469 280.992188 L 242.796875 281.308594 C 242.820312 281.320312 242.890625 281.355469 242.902344 281.367188 C 243.464844 281.695312 244.027344 282.039062 244.582031 282.378906 L 245.015625 282.636719 C 245.191406 282.730469 245.367188 282.835938 245.53125 282.953125 C 246.414062 283.480469 247.34375 284.070312 248.257812 284.679688 C 261.449219 293.324219 272.867188 304.941406 281.277344 318.277344 C 285.660156 325.21875 289.265625 332.652344 292.003906 340.382812 C 292.449219 341.652344 291.980469 343.0625 290.851562 343.8125 C 260.214844 364.0625 224.519531 374.777344 187.632812 374.777344 " fill-opacity="1" fill-rule="nonzero"/><path fill="#ffffff" d="M 246.648438 287.136719 C 245.003906 299.574219 239.519531 310.816406 231.402344 319.601562 C 220.523438 331.386719 204.949219 338.773438 187.632812 338.773438 C 159.898438 338.773438 136.59375 319.804688 129.980469 294.125 C 129.394531 291.847656 128.933594 289.507812 128.617188 287.136719 C 145.570312 276.011719 165.84375 269.550781 187.632812 269.550781 C 190.957031 269.550781 194.246094 269.691406 197.488281 269.996094 C 198.054688 270.042969 198.617188 270.101562 199.167969 270.160156 C 199.519531 270.195312 199.875 270.230469 200.214844 270.277344 C 200.601562 270.3125 200.988281 270.371094 201.367188 270.417969 C 201.601562 270.441406 201.847656 270.480469 202.082031 270.515625 C 202.421875 270.550781 202.773438 270.609375 203.128906 270.65625 C 203.398438 270.691406 203.667969 270.738281 203.949219 270.773438 C 204.183594 270.808594 204.417969 270.84375 204.65625 270.890625 C 205.054688 270.949219 205.441406 271.019531 205.839844 271.078125 C 207.554688 271.371094 209.257812 271.699219 210.9375 272.074219 L 212.066406 272.324219 C 212.277344 272.382812 212.5 272.429688 212.710938 272.488281 C 213.113281 272.582031 213.523438 272.675781 213.910156 272.78125 C 213.980469 272.792969 214.039062 272.804688 214.085938 272.816406 C 214.59375 272.945312 215.097656 273.074219 215.589844 273.214844 C 216.132812 273.34375 216.660156 273.496094 217.175781 273.648438 C 217.777344 273.816406 218.363281 273.992188 218.960938 274.167969 C 219.421875 274.308594 219.878906 274.449219 220.335938 274.601562 C 220.628906 274.695312 220.933594 274.789062 221.21875 274.882812 C 221.699219 275.035156 222.179688 275.199219 222.648438 275.363281 C 223.238281 275.566406 223.8125 275.765625 224.390625 275.976562 C 224.4375 276 224.472656 276.011719 224.507812 276.023438 C 225.105469 276.234375 225.691406 276.457031 226.28125 276.679688 C 226.714844 276.855469 227.160156 277.019531 227.609375 277.210938 C 228.769531 277.667969 229.910156 278.148438 231.039062 278.640625 L 232.515625 279.3125 C 232.964844 279.511719 233.410156 279.722656 233.855469 279.933594 C 234.269531 280.132812 234.667969 280.320312 235.066406 280.523438 C 235.441406 280.699219 235.804688 280.886719 236.171875 281.074219 C 236.40625 281.191406 236.652344 281.308594 236.886719 281.4375 C 237.863281 281.929688 238.8125 282.449219 239.753906 282.964844 C 240.09375 283.152344 240.445312 283.351562 240.777344 283.539062 C 241 283.671875 241.210938 283.789062 241.421875 283.90625 L 242.21875 284.375 L 243.03125 284.867188 L 243.558594 285.183594 C 244.066406 285.480469 244.558594 285.785156 245.050781 286.101562 C 245.589844 286.441406 246.121094 286.78125 246.648438 287.136719 " fill-opacity="1" fill-rule="nonzero"/><path fill="#1f894c" d="M 131.800781 288.582031 C 132.070312 290.1875 132.414062 291.808594 132.824219 293.394531 C 139.261719 318.382812 161.800781 335.835938 187.632812 335.835938 C 203.386719 335.835938 218.550781 329.1875 229.238281 317.605469 C 236.78125 309.453125 241.667969 299.445312 243.464844 288.582031 C 242.996094 288.273438 242.539062 287.992188 242.078125 287.722656 L 239.320312 286.089844 C 239 285.914062 238.660156 285.714844 238.34375 285.539062 C 237.425781 285.03125 236.5 284.539062 235.558594 284.058594 C 235.335938 283.941406 235.183594 283.859375 235.03125 283.789062 L 234.867188 283.707031 C 234.492188 283.503906 234.160156 283.339844 233.808594 283.175781 C 233.503906 283.023438 233.257812 282.90625 233 282.789062 L 232.421875 282.507812 C 232.058594 282.332031 231.695312 282.15625 231.332031 281.992188 L 229.839844 281.320312 C 228.757812 280.851562 227.667969 280.394531 226.527344 279.933594 C 226.222656 279.804688 225.976562 279.722656 225.726562 279.617188 L 225.175781 279.40625 C 224.671875 279.207031 224.105469 278.996094 223.53125 278.796875 C 223.460938 278.773438 223.378906 278.738281 223.261719 278.691406 C 222.746094 278.5 222.226562 278.324219 221.710938 278.148438 C 221.242188 277.984375 220.78125 277.820312 220.324219 277.679688 L 219.445312 277.398438 C 218.996094 277.246094 218.585938 277.128906 218.175781 276.996094 L 217.90625 276.914062 C 217.398438 276.761719 216.90625 276.621094 216.402344 276.480469 C 215.871094 276.328125 215.390625 276.1875 214.910156 276.070312 C 214.863281 276.058594 214.828125 276.058594 214.78125 276.035156 C 214.320312 275.90625 213.839844 275.789062 213.359375 275.660156 C 213.253906 275.648438 213.242188 275.648438 213.136719 275.613281 C 212.832031 275.53125 212.523438 275.460938 212.207031 275.390625 L 212.042969 275.339844 C 211.996094 275.339844 211.949219 275.316406 211.914062 275.316406 L 211.703125 275.257812 C 211.585938 275.234375 211.46875 275.199219 211.363281 275.175781 L 210.316406 274.941406 C 208.742188 274.589844 207.121094 274.273438 205.347656 273.980469 L 204.230469 273.792969 C 204.171875 273.792969 204.125 273.78125 204.078125 273.769531 C 203.914062 273.730469 203.75 273.707031 203.597656 273.683594 C 203.410156 273.660156 203.234375 273.636719 203.058594 273.613281 L 202.316406 273.507812 C 202.140625 273.472656 201.964844 273.449219 201.789062 273.4375 C 201.730469 273.4375 201.683594 273.425781 201.625 273.414062 C 201.449219 273.390625 201.257812 273.355469 201.082031 273.34375 L 200.671875 273.285156 C 200.425781 273.261719 200.179688 273.226562 199.933594 273.203125 C 199.507812 273.144531 199.191406 273.121094 198.875 273.085938 C 198.324219 273.027344 197.78125 272.96875 197.242188 272.921875 C 194.164062 272.640625 190.945312 272.488281 187.632812 272.488281 C 167.757812 272.488281 148.492188 278.042969 131.800781 288.582031 Z M 187.632812 341.710938 C 159.113281 341.710938 134.234375 322.445312 127.136719 294.851562 C 126.515625 292.445312 126.035156 289.976562 125.707031 287.523438 C 125.550781 286.40625 126.058594 285.304688 127.007812 284.679688 C 145.015625 272.863281 165.972656 266.613281 187.632812 266.613281 C 191.121094 266.613281 194.539062 266.765625 197.757812 267.070312 C 198.324219 267.117188 198.910156 267.179688 199.472656 267.25 C 199.851562 267.285156 200.238281 267.320312 200.601562 267.367188 C 200.8125 267.390625 201.128906 267.425781 201.449219 267.472656 L 201.742188 267.507812 C 201.929688 267.519531 202.199219 267.566406 202.457031 267.601562 C 202.679688 267.625 202.914062 267.660156 203.152344 267.695312 L 204.300781 267.859375 C 204.335938 267.859375 204.464844 267.882812 204.488281 267.882812 C 204.714844 267.917969 204.925781 267.953125 205.148438 268 C 205.347656 268.023438 205.535156 268.058594 205.734375 268.082031 L 206.265625 268.164062 C 208.214844 268.503906 209.929688 268.835938 211.574219 269.210938 L 212.6875 269.457031 L 212.867188 269.492188 L 213.078125 269.550781 C 213.195312 269.574219 213.324219 269.609375 213.441406 269.644531 L 213.546875 269.667969 C 213.886719 269.738281 214.214844 269.820312 214.546875 269.914062 C 214.628906 269.925781 214.699219 269.9375 214.769531 269.960938 C 215.320312 270.101562 215.835938 270.230469 216.332031 270.371094 C 216.90625 270.515625 217.46875 270.679688 218.011719 270.832031 C 218.492188 270.960938 219.019531 271.125 219.574219 271.289062 L 219.796875 271.347656 C 219.808594 271.359375 219.902344 271.382812 219.914062 271.382812 C 220.359375 271.523438 220.804688 271.664062 221.265625 271.816406 L 222.144531 272.097656 C 222.613281 272.242188 223.121094 272.417969 223.613281 272.59375 C 224.199219 272.792969 224.800781 273.003906 225.398438 273.226562 C 225.445312 273.238281 225.492188 273.25 225.539062 273.273438 C 226.175781 273.496094 226.75 273.71875 227.324219 273.933594 L 227.867188 274.144531 C 228.148438 274.261719 228.453125 274.378906 228.746094 274.507812 C 229.875 274.941406 231.050781 275.449219 232.210938 275.953125 L 233.738281 276.644531 C 234.113281 276.808594 234.527344 276.996094 234.9375 277.199219 L 235.546875 277.492188 C 235.832031 277.621094 236.101562 277.761719 236.382812 277.902344 C 236.722656 278.054688 237.121094 278.265625 237.523438 278.464844 L 237.617188 278.511719 C 237.839844 278.628906 238.074219 278.738281 238.285156 278.855469 C 239.226562 279.324219 240.199219 279.863281 241.175781 280.394531 C 241.527344 280.59375 241.890625 280.792969 242.230469 280.992188 L 245.074219 282.671875 C 245.578125 282.964844 246.109375 283.292969 246.636719 283.625 C 247.175781 283.976562 247.730469 284.328125 248.28125 284.691406 C 249.210938 285.316406 249.703125 286.40625 249.5625 287.523438 C 247.871094 300.316406 242.335938 312.097656 233.5625 321.601562 C 221.757812 334.378906 205.019531 341.710938 187.632812 341.710938 " fill-opacity="1" fill-rule="nonzero"/><path fill="#ffffff" d="M 161.414062 291.609375 L 161.414062 240.007812 C 161.414062 226.957031 172.082031 216.292969 185.132812 216.292969 L 190.136719 216.292969 C 203.1875 216.292969 213.863281 226.957031 213.863281 240.007812 L 213.863281 291.609375 C 213.863281 304.660156 203.1875 315.351562 190.136719 315.351562 L 185.132812 315.351562 " fill-opacity="1" fill-rule="nonzero"/><path fill="#1f894c" d="M 190.136719 318.289062 L 185.132812 318.289062 C 183.511719 318.289062 182.195312 316.972656 182.195312 315.351562 C 182.195312 313.730469 183.511719 312.414062 185.132812 312.414062 L 190.136719 312.414062 C 201.601562 312.414062 210.925781 303.074219 210.925781 291.609375 L 210.925781 240.007812 C 210.925781 228.542969 201.601562 219.226562 190.136719 219.226562 L 185.132812 219.226562 C 173.667969 219.226562 164.351562 228.542969 164.351562 240.007812 L 164.351562 291.609375 C 164.351562 293.230469 163.035156 294.546875 161.414062 294.546875 C 159.792969 294.546875 158.476562 293.230469 158.476562 291.609375 L 158.476562 240.007812 C 158.476562 225.3125 170.4375 213.355469 185.132812 213.355469 L 190.136719 213.355469 C 204.84375 213.355469 216.800781 225.3125 216.800781 240.007812 L 216.800781 291.609375 C 216.800781 306.316406 204.84375 318.289062 190.136719 318.289062 " fill-opacity="1" fill-rule="nonzero"/><path fill="#ffffff" d="M 251.59375 220.109375 C 251.59375 220.109375 263.882812 215.925781 271.726562 202.230469 C 280.257812 187.359375 274.898438 178.089844 273.207031 176.082031 C 268.589844 170.609375 261.460938 174.121094 260.285156 176.082031 C 259.113281 178.042969 242.101562 208.9375 251.59375 220.109375 " fill-opacity="1" fill-rule="nonzero"/><path fill="#1f894c" d="M 267.066406 176.082031 C 264.972656 176.082031 263.117188 177.234375 262.765625 177.667969 C 260.027344 182.226562 247.976562 206.257812 252.699219 216.433594 C 256.304688 214.648438 263.871094 210.03125 269.179688 200.773438 C 277.589844 186.113281 271.246094 178.300781 270.964844 177.972656 C 269.894531 176.703125 268.613281 176.082031 267.0625 176.082031 Z M 251.59375 223.046875 C 250.738281 223.046875 249.914062 222.679688 249.351562 222.011719 C 237.933594 208.5625 257.574219 174.90625 257.773438 174.566406 C 259.066406 172.429688 262.882812 170.210938 267.066406 170.210938 C 270.367188 170.210938 273.265625 171.59375 275.464844 174.191406 C 278.941406 178.3125 282.605469 189.167969 274.277344 203.699219 C 265.972656 218.183594 253.085938 222.703125 252.546875 222.894531 C 252.226562 223 251.910156 223.046875 251.59375 223.046875 " fill-opacity="1" fill-rule="nonzero"/><path fill="#ffffff" d="M 126.867188 220.109375 C 126.867188 220.109375 114.582031 215.925781 106.734375 202.230469 C 98.195312 187.359375 103.550781 178.089844 105.242188 176.082031 C 109.859375 170.609375 116.988281 174.121094 118.164062 176.082031 C 119.339844 178.042969 136.359375 208.9375 126.867188 220.109375 " fill-opacity="1" fill-rule="nonzero"/><path fill="#1f894c" d="M 111.398438 176.082031 C 109.847656 176.082031 108.566406 176.703125 107.496094 177.972656 C 107.214844 178.300781 100.871094 186.113281 109.273438 200.773438 C 114.628906 210.101562 122.15625 214.683594 125.765625 216.445312 C 130.484375 206.269531 118.433594 182.226562 115.648438 177.597656 C 115.34375 177.234375 113.488281 176.082031 111.398438 176.082031 Z M 126.867188 223.046875 C 126.550781 223.046875 126.234375 223 125.917969 222.894531 C 125.375 222.703125 112.488281 218.183594 104.171875 203.699219 C 95.855469 189.167969 99.523438 178.3125 103 174.191406 C 105.195312 171.59375 108.097656 170.210938 111.398438 170.210938 C 115.578125 170.210938 119.398438 172.429688 120.6875 174.566406 C 120.890625 174.90625 140.53125 208.5625 129.113281 222.011719 C 128.535156 222.679688 127.714844 223.046875 126.867188 223.046875 " fill-opacity="1" fill-rule="nonzero"/><path fill="#ffffff" d="M 263.632812 173.710938 C 263.632812 128.695312 230.402344 92.1875 189.394531 92.1875 C 148.398438 92.1875 115.144531 128.695312 115.144531 173.710938 C 115.144531 218.746094 148.398438 265.816406 189.394531 265.816406 C 227.925781 265.816406 263.632812 218.371094 263.632812 173.710938 " fill-opacity="1" fill-rule="nonzero"/><path fill="#1f894c" d="M 189.394531 95.125 C 150.078125 95.125 118.082031 130.386719 118.082031 173.710938 C 118.082031 195.183594 125.789062 217.464844 139.226562 234.863281 C 153.179688 252.929688 171 262.878906 189.394531 262.878906 C 206.59375 262.878906 224.542969 252.601562 238.660156 234.6875 C 252.664062 216.914062 260.699219 194.6875 260.699219 173.710938 C 260.699219 130.386719 228.710938 95.125 189.394531 95.125 Z M 189.394531 268.75 C 145.226562 268.75 112.207031 218.582031 112.207031 173.710938 C 112.207031 127.144531 146.835938 89.25 189.394531 89.25 C 231.953125 89.25 266.570312 127.144531 266.570312 173.710938 C 266.570312 221.683594 228.347656 268.75 189.394531 268.75 " fill-opacity="1" fill-rule="nonzero"/><path fill="#1f894c" d="M 202.527344 146.621094 C 203.503906 156.652344 203.925781 163.773438 214.003906 169.609375 C 222.980469 174.800781 233.679688 174.625 243.5 175.589844 C 253.050781 176.527344 275.15625 190.929688 276.933594 190.214844 C 284.050781 187.359375 285.496094 173.652344 283.863281 165.324219 C 281.3125 152.402344 278.1875 141.347656 268.910156 136.109375 C 259.441406 130.789062 252.628906 133.734375 250.703125 120.683594 C 249.316406 111.242188 249.046875 102.996094 242.902344 94.972656 C 237.710938 88.195312 228.816406 82.542969 220.125 82.144531 C 215.015625 81.921875 209.894531 83.332031 205.558594 85.972656 C 202.621094 87.757812 200.683594 91.648438 197.347656 92.75 C 194.445312 93.714844 191.96875 92.164062 188.878906 92.976562 C 182.359375 94.65625 179.503906 101.066406 179.140625 107.222656 C 178.742188 114.234375 180.445312 119.464844 186.011719 123.574219 C 195.105469 130.28125 201.152344 133.078125 202.386719 145.140625 C 202.433594 145.648438 202.480469 146.140625 202.527344 146.621094 " fill-opacity="1" fill-rule="nonzero"/><path fill="#1f894c" d="M 190.851562 95.664062 C 190.394531 95.664062 189.996094 95.710938 189.617188 95.804688 C 183.144531 97.484375 182.207031 105.097656 182.078125 107.398438 C 181.703125 113.953125 183.347656 117.960938 187.75 121.214844 C 188.832031 122 189.867188 122.742188 190.863281 123.457031 C 198.253906 128.730469 204.089844 132.902344 205.300781 144.847656 L 205.535156 147.164062 C 206.441406 156.511719 206.980469 162.152344 215.472656 167.074219 C 222.25 170.984375 230.425781 171.617188 238.332031 172.21875 C 240.164062 172.347656 241.996094 172.5 243.792969 172.664062 C 250.21875 173.296875 260.652344 178.855469 269.027344 183.316406 C 271.75 184.761719 275.050781 186.523438 276.53125 187.136719 C 280.84375 184.433594 282.511719 173.6875 280.972656 165.886719 C 278.222656 151.917969 275.132812 142.980469 267.464844 138.667969 C 264.914062 137.234375 262.589844 136.460938 260.34375 135.722656 C 254.71875 133.851562 249.421875 132.089844 247.800781 121.109375 C 247.601562 119.78125 247.425781 118.464844 247.257812 117.183594 C 246.25 109.585938 245.367188 103.042969 240.574219 96.769531 C 235.476562 90.109375 227.207031 85.410156 219.984375 85.082031 C 215.589844 84.882812 210.984375 86.101562 207.085938 88.476562 C 206.179688 89.027344 205.277344 89.992188 204.3125 91.023438 C 202.714844 92.726562 200.894531 94.679688 198.265625 95.535156 C 197.300781 95.863281 196.300781 96.015625 195.199219 96.015625 C 194.304688 96.015625 193.496094 95.910156 192.71875 95.816406 C 192.050781 95.746094 191.429688 95.664062 190.851562 95.664062 Z M 276.765625 193.171875 C 275.121094 193.171875 272.9375 192.058594 266.265625 188.5 C 259.195312 184.726562 248.492188 179.03125 243.207031 178.515625 C 241.46875 178.335938 239.683594 178.207031 237.886719 178.066406 C 229.324219 177.421875 220.464844 176.738281 212.535156 172.160156 C 201.425781 165.722656 200.625 157.382812 199.6875 147.726562 L 199.460938 145.433594 C 198.511719 136.144531 194.585938 133.335938 187.445312 128.238281 C 186.433594 127.511719 185.378906 126.746094 184.261719 125.9375 C 178.28125 121.519531 175.722656 115.527344 176.214844 107.058594 C 176.710938 98.390625 181.277344 91.90625 188.136719 90.121094 C 189.007812 89.898438 189.890625 89.792969 190.851562 89.792969 C 191.792969 89.792969 192.660156 89.898438 193.425781 89.992188 C 194.621094 90.132812 195.632812 90.226562 196.433594 89.96875 C 197.628906 89.566406 198.804688 88.324219 200.039062 87.007812 C 201.222656 85.738281 202.445312 84.433594 204.03125 83.460938 C 208.976562 80.453125 214.617188 78.960938 220.253906 79.21875 C 229.25 79.628906 239.058594 85.105469 245.238281 93.199219 C 250.996094 100.714844 252.003906 108.328125 253.074219 116.410156 C 253.25 117.667969 253.414062 118.945312 253.613281 120.25 C 254.695312 127.652344 257.042969 128.4375 262.191406 130.140625 C 264.585938 130.941406 267.300781 131.84375 270.339844 133.546875 C 280.984375 139.539062 284.273438 152.25 286.738281 164.746094 C 288.5625 173.980469 287.046875 189.320312 278.023438 192.9375 C 277.636719 193.089844 277.214844 193.171875 276.765625 193.171875 " fill-opacity="1" fill-rule="nonzero"/><path fill="#1f894c" d="M 202.351562 93.925781 C 205.792969 73.523438 184.0625 70.820312 169.355469 71.5625 C 160.207031 72.019531 149.9375 75.191406 143.125 81.570312 C 135.464844 88.746094 134.890625 98.085938 129.769531 106.566406 C 125.046875 114.367188 117.824219 118.734375 111.351562 124.820312 C 103.410156 132.265625 98.371094 143.777344 99.371094 154.914062 C 100.273438 164.898438 113.945312 192.035156 119.902344 171.535156 C 121.5 166.003906 124.378906 163.066406 130.566406 162.503906 C 140.410156 161.621094 149.632812 166.144531 150.277344 151.695312 C 150.726562 141.746094 144.78125 128.296875 161.109375 128.789062 C 170.460938 129.074219 176.910156 135.816406 187.1875 133.265625 C 197.605469 130.691406 198.535156 124.9375 198.957031 115.703125 C 199.296875 108.480469 201.140625 101.101562 202.351562 93.925781 " fill-opacity="1" fill-rule="nonzero"/><path fill="#1f894c" d="M 173.503906 74.390625 C 172.1875 74.390625 170.847656 74.425781 169.507812 74.496094 C 159.886719 74.980469 150.785156 78.421875 145.132812 83.71875 C 140.882812 87.6875 139.015625 92.550781 137.027344 97.707031 C 135.726562 101.117188 134.375 104.628906 132.285156 108.082031 C 128.722656 113.988281 123.835938 118.042969 119.128906 121.953125 C 117.199219 123.550781 115.214844 125.195312 113.359375 126.957031 C 105.769531 134.078125 101.425781 144.953125 102.292969 154.644531 C 102.988281 162.257812 110.527344 176.070312 114.003906 176.070312 C 114.535156 176.070312 115.851562 174.953125 117.082031 170.714844 C 119.128906 163.65625 123.203125 160.222656 130.296875 159.578125 C 131.355469 159.484375 132.472656 159.4375 133.738281 159.4375 C 134.902344 159.4375 136.042969 159.484375 137.132812 159.519531 C 138.109375 159.554688 139.0625 159.578125 139.964844 159.578125 C 144.453125 159.578125 147 159.214844 147.34375 151.566406 C 147.4375 149.535156 147.226562 147.199219 147.011719 144.941406 C 146.507812 139.328125 145.96875 133.511719 149.574219 129.566406 C 152.007812 126.898438 155.730469 125.6875 161.191406 125.855469 C 165.539062 125.984375 169.167969 127.296875 172.691406 128.566406 C 176.003906 129.765625 179.128906 130.90625 182.570312 130.90625 C 183.886719 130.90625 185.15625 130.753906 186.480469 130.421875 C 194.703125 128.390625 195.597656 124.9375 196.03125 115.5625 C 196.277344 110.195312 197.3125 104.804688 198.324219 99.589844 C 198.722656 97.519531 199.121094 95.476562 199.460938 93.433594 C 200.308594 88.382812 199.496094 84.46875 196.984375 81.5 C 193.121094 76.917969 184.765625 74.390625 173.503906 74.390625 Z M 114.003906 181.945312 C 104.808594 181.945312 97.066406 162.058594 96.445312 155.171875 C 95.410156 143.566406 100.34375 131.117188 109.34375 122.671875 C 111.328125 120.800781 113.382812 119.085938 115.378906 117.429688 C 119.914062 113.660156 124.203125 110.101562 127.253906 105.039062 C 129.078125 102.03125 130.273438 98.90625 131.554688 95.59375 C 133.679688 90.0625 135.890625 84.328125 141.117188 79.417969 C 147.742188 73.21875 158.253906 69.1875 169.214844 68.636719 C 170.648438 68.554688 172.09375 68.519531 173.503906 68.519531 C 182.710938 68.519531 195.058594 70.117188 201.472656 77.703125 C 205.125 82.027344 206.394531 87.640625 205.253906 94.417969 C 204.902344 96.5 204.5 98.589844 204.089844 100.691406 C 203.128906 105.707031 202.128906 110.898438 201.894531 115.832031 C 201.425781 125.808594 200.15625 133.101562 187.890625 136.121094 C 186.105469 136.566406 184.367188 136.777344 182.570312 136.777344 C 178.09375 136.777344 174.335938 135.414062 170.695312 134.101562 C 167.464844 132.925781 164.421875 131.820312 161.015625 131.714844 C 157.492188 131.609375 155.09375 132.21875 153.910156 133.523438 C 152.054688 135.554688 152.464844 140.054688 152.863281 144.402344 C 153.085938 146.855469 153.320312 149.394531 153.214844 151.824219 C 152.675781 163.832031 146.214844 165.453125 139.964844 165.453125 C 138.992188 165.453125 137.980469 165.429688 136.933594 165.382812 C 134.867188 165.324219 132.578125 165.277344 130.828125 165.429688 C 126.199219 165.851562 124.085938 167.660156 122.722656 172.359375 C 120.878906 178.714844 117.941406 181.945312 114.003906 181.945312 " fill-opacity="1" fill-rule="nonzero"/><path fill="#1f894c" d="M 199.121094 112.015625 C 205.441406 119.628906 202.445312 129.730469 197.746094 132.761719 C 194.691406 134.734375 188.257812 131.210938 183.898438 135.25 C 179.09375 139.714844 180.46875 142.699219 182.875 147.066406 C 188.257812 156.851562 178.554688 158.945312 172.304688 162.140625 C 169.941406 163.335938 164.46875 168.988281 168.367188 178.996094 C 160.277344 177.210938 151.078125 169.222656 155.058594 160.625 C 156.890625 156.652344 160.535156 155.207031 162.449219 151.765625 C 164.761719 147.585938 164.011719 145.765625 161.980469 142.582031 C 149.632812 123.304688 175.945312 112.898438 190.875 109.066406 C 192.683594 108.597656 194.835938 108.363281 196.621094 108 C 198.875 110.019531 200.625 112.484375 202.058594 114.953125 " fill-opacity="1" fill-rule="nonzero"/><path fill="#1f894c" d="M 195.667969 111.160156 C 195.398438 111.207031 195.128906 111.242188 194.859375 111.289062 C 193.730469 111.476562 192.578125 111.664062 191.605469 111.910156 C 176.039062 115.902344 165.128906 122.386719 162.425781 129.25 C 161.015625 132.832031 161.671875 136.671875 164.445312 140.996094 C 166.664062 144.472656 168.121094 147.574219 165.019531 153.1875 C 163.90625 155.183594 162.390625 156.605469 161.039062 157.863281 C 159.664062 159.144531 158.464844 160.246094 157.726562 161.855469 C 156.761719 163.949219 156.808594 166.003906 157.867188 168.152344 C 159.03125 170.480469 161.390625 172.699219 164.1875 174.261719 C 163.375 166.578125 167.476562 161.304688 170.964844 159.53125 C 172 158.992188 173.113281 158.496094 174.195312 158.015625 C 177.238281 156.664062 180.679688 155.125 181.359375 153.105469 C 181.738281 151.988281 181.371094 150.441406 180.304688 148.476562 C 178.046875 144.390625 175.242188 139.292969 181.902344 133.101562 C 185.390625 129.871094 189.664062 130.164062 192.800781 130.386719 C 193.953125 130.457031 195.714844 130.585938 196.160156 130.292969 C 197.523438 129.414062 199.132812 127.0625 199.636719 123.84375 C 199.957031 121.753906 200.015625 117.703125 196.867188 113.894531 C 196.335938 113.261719 196.113281 112.484375 196.195312 111.722656 C 196.019531 111.535156 195.84375 111.335938 195.667969 111.160156 Z M 168.367188 181.933594 C 168.167969 181.933594 167.957031 181.921875 167.734375 181.875 C 162.367188 180.6875 155.601562 176.789062 152.605469 170.75 C 150.761719 167.027344 150.679688 163.089844 152.394531 159.390625 C 153.613281 156.734375 155.4375 155.042969 157.035156 153.5625 C 158.207031 152.472656 159.21875 151.53125 159.875 150.34375 C 161.542969 147.351562 161.109375 146.667969 159.5 144.15625 C 155.695312 138.222656 154.847656 132.480469 156.964844 127.097656 C 161.671875 115.140625 179.773438 108.890625 190.148438 106.226562 C 191.367188 105.90625 192.660156 105.695312 193.90625 105.496094 C 194.632812 105.367188 195.363281 105.25 196.03125 105.121094 C 196.949219 104.933594 197.898438 105.191406 198.582031 105.8125 C 200.800781 107.800781 202.761719 110.3125 204.609375 113.496094 C 205.089844 114.34375 205.113281 115.328125 204.738281 116.152344 C 205.640625 118.875 205.886719 121.789062 205.441406 124.738281 C 204.75 129.226562 202.410156 133.242188 199.34375 135.226562 C 197.253906 136.578125 194.777344 136.414062 192.390625 136.238281 C 189.359375 136.027344 187.410156 136.003906 185.894531 137.402344 C 182.710938 140.359375 183.132812 141.464844 185.4375 145.648438 C 187.351562 149.113281 187.84375 152.238281 186.929688 154.972656 C 185.425781 159.4375 180.726562 161.539062 176.578125 163.382812 C 175.535156 163.855469 174.535156 164.289062 173.632812 164.757812 C 172.28125 165.453125 167.898438 169.703125 171.117188 177.9375 C 171.503906 178.949219 171.304688 180.089844 170.613281 180.910156 C 170.035156 181.566406 169.226562 181.933594 168.367188 181.933594 " fill-opacity="1" fill-rule="nonzero"/><path fill="#1f894c" d="M 247.695312 172.335938 C 247.152344 172.335938 246.613281 172.183594 246.121094 171.878906 C 225.164062 158.519531 206.769531 169.585938 206.003906 170.066406 C 204.621094 170.914062 202.808594 170.492188 201.964844 169.117188 C 201.105469 167.742188 201.53125 165.933594 202.890625 165.074219 C 203.796875 164.523438 225.117188 151.53125 249.269531 166.921875 C 250.644531 167.789062 251.054688 169.609375 250.171875 170.972656 C 249.609375 171.855469 248.667969 172.335938 247.695312 172.335938 " fill-opacity="1" fill-rule="nonzero"/><path fill="#1f894c" d="M 238.730469 185.351562 C 238.203125 185.351562 237.675781 185.210938 237.191406 184.914062 C 224.683594 177.210938 214.96875 184.65625 214.875 184.726562 C 213.59375 185.726562 211.75 185.503906 210.738281 184.234375 C 209.742188 182.964844 209.964844 181.109375 211.246094 180.113281 C 211.761719 179.6875 224.320312 170.078125 240.269531 179.921875 C 241.65625 180.769531 242.078125 182.578125 241.234375 183.964844 C 240.667969 184.855469 239.71875 185.351562 238.730469 185.351562 " fill-opacity="1" fill-rule="nonzero"/><path fill="#1f894c" d="M 136.722656 185.351562 C 135.738281 185.351562 134.773438 184.855469 134.222656 183.964844 C 133.363281 182.578125 133.796875 180.769531 135.171875 179.921875 C 151.125 170.078125 163.683594 179.6875 164.210938 180.113281 C 165.492188 181.109375 165.703125 182.964844 164.703125 184.234375 C 163.707031 185.503906 161.863281 185.726562 160.59375 184.738281 C 160.179688 184.421875 150.632812 177.292969 138.261719 184.914062 C 137.78125 185.210938 137.253906 185.351562 136.722656 185.351562 " fill-opacity="1" fill-rule="nonzero"/><path fill="#1f894c" d="M 170.601562 171.78125 C 169.988281 171.78125 169.367188 171.59375 168.851562 171.207031 C 168.109375 170.667969 150.703125 158.121094 128.722656 169.679688 C 127.289062 170.445312 125.503906 169.890625 124.753906 168.457031 C 124 167.027344 124.542969 165.242188 125.988281 164.488281 C 151.335938 151.15625 171.515625 165.863281 172.363281 166.496094 C 173.65625 167.472656 173.925781 169.304688 172.949219 170.609375 C 172.375 171.382812 171.492188 171.78125 170.601562 171.78125 " fill-opacity="1" fill-rule="nonzero"/><path fill="#1f894c" d="M 188.773438 219.308594 C 185.589844 219.308594 183.191406 218.183594 183.050781 218.113281 C 181.597656 217.40625 180.984375 215.644531 181.691406 214.1875 C 182.394531 212.730469 184.132812 212.121094 185.589844 212.8125 C 185.695312 212.859375 188.714844 214.199219 191.570312 212.824219 C 193.023438 212.121094 194.777344 212.730469 195.492188 214.1875 C 196.195312 215.644531 195.585938 217.40625 194.117188 218.113281 C 192.261719 219.015625 190.40625 219.308594 188.773438 219.308594 " fill-opacity="1" fill-rule="nonzero"/><path fill="#1f894c" d="M 187.539062 232.890625 C 179.445312 232.890625 174.03125 230.46875 173.703125 230.316406 C 172.222656 229.648438 171.574219 227.898438 172.257812 226.429688 C 172.925781 224.960938 174.664062 224.300781 176.132812 224.972656 C 176.320312 225.054688 186.660156 229.542969 199.601562 224.890625 C 201.128906 224.335938 202.808594 225.136719 203.363281 226.652344 C 203.914062 228.191406 203.117188 229.871094 201.589844 230.410156 C 196.433594 232.265625 191.640625 232.890625 187.539062 232.890625 " fill-opacity="1" fill-rule="nonzero"/><path fill="#1f894c" d="M 229.3125 189.425781 C 229.3125 194.890625 226.152344 199.328125 222.238281 199.328125 C 218.328125 199.328125 215.167969 194.890625 215.167969 189.425781 C 215.167969 183.941406 218.328125 179.5 222.238281 179.5 C 226.152344 179.5 229.3125 183.941406 229.3125 189.425781 " fill-opacity="1" fill-rule="nonzero"/><path fill="#1f894c" d="M 160.628906 189.425781 C 160.628906 194.890625 157.457031 199.328125 153.554688 199.328125 C 149.644531 199.328125 146.472656 194.890625 146.472656 189.425781 C 146.472656 183.941406 149.644531 179.5 153.554688 179.5 C 157.457031 179.5 160.628906 183.941406 160.628906 189.425781 " fill-opacity="1" fill-rule="nonzero"/></svg>