<svg xmlns="http://www.w3.org/2000/svg" xmlns:xlink="http://www.w3.org/1999/xlink" width="1920" zoomAndPan="magnify" viewBox="0 0 1440 809.999993" height="1080" preserveAspectRatio="xMidYMid meet" version="1.0"><defs><g/><clipPath id="5609f7fc4b"><rect x="0" width="1238" y="0" height="810"/></clipPath></defs><g transform="matrix(1, 0, 0, 1, 128, 0.000000000000039746)"><g clip-path="url(#5609f7fc4b)"><g fill="#c9fd06" fill-opacity="1"><g transform="translate(31.907488, 708.517517)"><g><path d="M -17.660156 0 L -17.660156 -661.757812 L 142.667969 -661.757812 C 173.082031 -661.757812 199.964844 -658.730469 223.324219 -652.675781 C 250.761719 -645.5625 272.285156 -631.988281 287.886719 -611.953125 C 303.539062 -591.867188 311.363281 -564.164062 311.363281 -528.847656 L 311.363281 -250.019531 C 310.976562 -215.535156 302.996094 -188.296875 287.425781 -168.308594 C 271.9375 -148.425781 251.277344 -134.894531 225.449219 -127.71875 C 203.328125 -121.574219 178.519531 -118.503906 151.035156 -118.503906 L 140.34375 -118.503906 L 140.34375 -148.246094 L 170.085938 -148.246094 L 170.085938 29.742188 L -17.660156 29.742188 Z M 41.824219 0 L 12.082031 0 L 12.082031 -29.742188 L 140.34375 -29.742188 L 140.34375 0 L 110.601562 0 L 110.601562 -177.988281 L 151.035156 -177.988281 C 173.117188 -177.988281 192.613281 -180.335938 209.527344 -185.035156 C 222.734375 -188.703125 233.058594 -195.3125 240.496094 -204.863281 C 247.851562 -214.300781 251.644531 -229.355469 251.878906 -250.019531 L 251.878906 -528.847656 C 251.878906 -550.539062 248.238281 -566.058594 240.960938 -575.402344 C 233.640625 -584.800781 222.785156 -591.363281 208.398438 -595.09375 C 189.933594 -599.882812 168.023438 -602.273438 142.667969 -602.273438 L 12.082031 -602.273438 L 12.082031 -632.015625 L 41.824219 -632.015625 Z M 134.304688 -258.382812 L 146.386719 -258.382812 C 145.613281 -258.382812 144.546875 -258.144531 143.195312 -257.664062 C 139.867188 -256.484375 136.996094 -254.429688 134.582031 -251.5 C 132.691406 -249.203125 131.496094 -246.960938 130.992188 -244.761719 L 130.976562 -244.828125 C 131.027344 -245.34375 131.050781 -245.992188 131.050781 -246.765625 L 131.050781 -525.132812 C 131.050781 -525.90625 131.027344 -526.550781 130.976562 -527.070312 L 130.992188 -527.132812 C 131.496094 -524.9375 132.691406 -522.691406 134.582031 -520.398438 C 137.082031 -517.363281 140.03125 -515.265625 143.433594 -514.109375 C 144.601562 -513.710938 145.429688 -513.511719 145.921875 -513.511719 L 134.304688 -513.511719 L 134.304688 -543.253906 L 164.046875 -543.253906 L 164.046875 -228.640625 L 134.304688 -228.640625 Z M 104.5625 -198.898438 L 104.5625 -572.996094 L 145.921875 -572.996094 C 160.855469 -572.996094 172.382812 -568.070312 180.5 -558.214844 C 187.1875 -550.089844 190.535156 -539.0625 190.535156 -525.132812 L 190.535156 -246.765625 C 190.535156 -232.835938 187.1875 -221.808594 180.5 -213.683594 C 172.382812 -203.828125 161.011719 -198.898438 146.386719 -198.898438 Z M 104.5625 -198.898438 "/></g></g></g><g fill="#c9fd06" fill-opacity="1"><g transform="translate(287.037866, 708.517517)"><g><path d="M 134.316406 0.929688 L 131.53125 -88.296875 L 161.257812 -89.226562 L 161.257812 -59.484375 L 133.375 -59.484375 L 133.375 -89.226562 L 163.101562 -88.296875 L 159.414062 29.742188 L -31.148438 29.742188 L 50.714844 -661.757812 L 243.433594 -661.757812 L 325.804688 29.742188 L 135.21875 29.742188 Z M 193.773438 -0.929688 L 164.046875 0 L 164.046875 -29.742188 L 292.308594 -29.742188 L 292.308594 0 L 262.773438 3.519531 L 187.488281 -628.5 L 217.023438 -632.015625 L 217.023438 -602.273438 L 77.144531 -602.273438 L 77.144531 -632.015625 L 106.679688 -628.519531 L 31.859375 3.496094 L 2.324219 0 L 2.324219 -29.742188 L 130.585938 -29.742188 L 130.585938 0 L 100.859375 -0.929688 L 104.546875 -118.96875 L 190.085938 -118.96875 Z M 135.699219 -191 L 158.933594 -191 L 158.933594 -161.257812 L 129.207031 -160.273438 L 119.449219 -454.902344 L 149.175781 -455.890625 L 149.175781 -426.144531 L 144.527344 -426.144531 L 144.527344 -455.890625 L 174.257812 -454.996094 L 165.425781 -160.367188 L 135.699219 -161.257812 Z M 105.050781 -131.515625 L 115.664062 -485.632812 L 177.949219 -485.632812 L 189.675781 -131.515625 Z M 105.050781 -131.515625 "/></g></g></g><g fill="#c9fd06" fill-opacity="1"><g transform="translate(547.744849, 708.517517)"><g><path d="M 19.984375 0 L 19.984375 -537.214844 L 49.726562 -537.214844 L 49.726562 -507.472656 L -26.488281 -507.472656 L -26.488281 -661.757812 L 253.273438 -661.757812 L 253.273438 -507.472656 L 177.523438 -507.472656 L 177.523438 -537.214844 L 207.265625 -537.214844 L 207.265625 29.742188 L 19.984375 29.742188 Z M 79.46875 0 L 49.726562 0 L 49.726562 -29.742188 L 177.523438 -29.742188 L 177.523438 0 L 147.78125 0 L 147.78125 -566.957031 L 223.53125 -566.957031 L 223.53125 -537.214844 L 193.789062 -537.214844 L 193.789062 -632.015625 L 223.53125 -632.015625 L 223.53125 -602.273438 L 3.253906 -602.273438 L 3.253906 -632.015625 L 32.996094 -632.015625 L 32.996094 -537.214844 L 3.253906 -537.214844 L 3.253906 -566.957031 L 79.46875 -566.957031 Z M 79.46875 0 "/></g></g></g><g fill="#c9fd06" fill-opacity="1"><g transform="translate(774.99211, 708.517517)"><g><path d="M 282.546875 29.742188 L 132.238281 29.742188 L 121.78125 -226.964844 L 151.5 -228.175781 L 151.5 -198.433594 L 134.304688 -198.433594 L 134.304688 -228.175781 L 164.046875 -228.175781 L 164.046875 29.742188 L -17.660156 29.742188 L -17.660156 -661.757812 L 142.667969 -661.757812 C 173.082031 -661.757812 199.964844 -658.730469 223.324219 -652.675781 C 250.761719 -645.5625 272.285156 -631.988281 287.886719 -611.953125 C 303.539062 -591.867188 311.363281 -564.164062 311.363281 -528.847656 L 311.363281 -322.515625 C 311.363281 -302.4375 308.273438 -284.992188 302.101562 -270.179688 C 295.554688 -254.464844 286.035156 -241.480469 273.542969 -231.21875 L 254.664062 -254.199219 L 284.230469 -257.445312 L 315.730469 29.742188 Z M 282.546875 -29.742188 L 282.546875 0 L 252.984375 3.242188 L 223.34375 -266.964844 L 235.785156 -277.183594 C 240.644531 -281.171875 244.445312 -286.464844 247.195312 -293.058594 C 250.316406 -300.550781 251.878906 -310.371094 251.878906 -322.515625 L 251.878906 -528.847656 C 251.878906 -550.539062 248.238281 -566.058594 240.960938 -575.402344 C 233.640625 -584.800781 222.785156 -591.363281 208.398438 -595.09375 C 189.933594 -599.882812 168.023438 -602.273438 142.667969 -602.273438 L 12.082031 -602.273438 L 12.082031 -632.015625 L 41.824219 -632.015625 L 41.824219 0 L 12.082031 0 L 12.082031 -29.742188 L 134.304688 -29.742188 L 134.304688 0 L 104.5625 0 L 104.5625 -257.917969 L 180.054688 -257.917969 L 190.511719 -1.210938 L 160.792969 0 L 160.792969 -29.742188 Z M 146.386719 -329.484375 C 145.238281 -329.484375 143.835938 -329.15625 142.179688 -328.5 C 138.746094 -327.144531 135.886719 -324.910156 133.59375 -321.800781 C 132.15625 -319.847656 131.257812 -318.046875 130.902344 -316.402344 C 131 -316.855469 131.050781 -317.808594 131.050781 -319.261719 L 131.050781 -525.132812 C 131.050781 -525.90625 131.027344 -526.550781 130.976562 -527.070312 L 130.992188 -527.132812 C 131.496094 -524.9375 132.691406 -522.691406 134.582031 -520.398438 C 137.082031 -517.363281 140.03125 -515.265625 143.433594 -514.109375 C 144.601562 -513.710938 145.429688 -513.511719 145.921875 -513.511719 L 134.304688 -513.511719 L 134.304688 -543.253906 L 164.046875 -543.253906 L 164.046875 -299.742188 L 134.304688 -299.742188 L 134.304688 -329.484375 Z M 146.386719 -270 L 104.5625 -270 L 104.5625 -572.996094 L 145.921875 -572.996094 C 160.855469 -572.996094 172.382812 -568.070312 180.5 -558.214844 C 187.1875 -550.089844 190.535156 -539.0625 190.535156 -525.132812 L 190.535156 -319.261719 C 190.535156 -305.621094 187.519531 -294.703125 181.484375 -286.515625 C 177.023438 -280.464844 171.21875 -276.023438 164.070312 -273.191406 C 158.695312 -271.066406 152.800781 -270 146.386719 -270 Z M 146.386719 -270 "/></g></g></g><g fill="#c9fd06" fill-opacity="1"><g transform="translate(1067.299941, 708.517517)"><g><path d="M 69.707031 39.035156 C 50.367188 39.035156 34.496094 36.535156 22.097656 31.53125 C 13.363281 28.007812 5.921875 22.78125 -0.226562 15.851562 C -5.984375 9.367188 -10.355469 1.640625 -13.34375 -7.324219 C -17.769531 -20.601562 -19.984375 -38.761719 -19.984375 -61.808594 C -19.984375 -86.578125 -17.8125 -105.777344 -13.464844 -119.40625 C -10.554688 -128.535156 -6.285156 -136.414062 -0.652344 -143.042969 C 5.46875 -150.25 12.914062 -155.699219 21.6875 -159.390625 C 34.207031 -164.664062 50.214844 -167.300781 69.707031 -167.300781 C 89.511719 -167.300781 105.675781 -164.664062 118.195312 -159.390625 C 126.964844 -155.699219 134.410156 -150.25 140.53125 -143.042969 C 146.164062 -136.414062 150.433594 -128.535156 153.347656 -119.40625 C 157.691406 -105.777344 159.863281 -86.578125 159.863281 -61.808594 C 159.863281 -38.761719 157.652344 -20.601562 153.226562 -7.324219 C 150.238281 1.640625 145.863281 9.367188 140.109375 15.851562 C 133.957031 22.78125 126.515625 28.007812 117.78125 31.53125 C 105.382812 36.535156 89.359375 39.035156 69.707031 39.035156 Z M 69.707031 -20.449219 C 81.660156 -20.449219 90.265625 -21.507812 95.523438 -23.632812 L 95.621094 -23.636719 C 95.984375 -24.042969 96.375 -24.878906 96.792969 -26.136719 C 99.183594 -33.304688 100.378906 -45.195312 100.378906 -61.808594 C 100.378906 -80.410156 99.144531 -93.585938 96.671875 -101.335938 C 96.039062 -103.320312 95.519531 -104.394531 95.109375 -104.570312 C 89.972656 -106.730469 81.503906 -107.8125 69.707031 -107.8125 C 58.222656 -107.8125 49.910156 -106.730469 44.769531 -104.570312 C 44.359375 -104.394531 43.839844 -103.320312 43.207031 -101.335938 C 40.738281 -93.585938 39.5 -80.410156 39.5 -61.808594 C 39.5 -45.195312 40.695312 -33.304688 43.085938 -26.136719 C 43.507812 -24.878906 43.898438 -24.042969 44.257812 -23.636719 L 44.355469 -23.632812 C 49.617188 -21.507812 58.066406 -20.449219 69.707031 -20.449219 Z M 69.707031 -20.449219 "/></g></g></g><g fill="#c9fd06" fill-opacity="1"><g transform="translate(1206.7313, 708.517517)"><g/></g></g><g fill="#0171d3" fill-opacity="1"><g transform="translate(31.907488, 708.517517)"><g><path d="M 12.078125 0 L 12.078125 -632.015625 L 142.671875 -632.015625 C 170.554688 -632.015625 194.953125 -629.300781 215.859375 -623.875 C 236.773438 -618.457031 252.960938 -608.390625 264.421875 -593.671875 C 275.890625 -578.960938 281.625 -557.359375 281.625 -528.859375 L 281.625 -250.015625 C 281.3125 -222.441406 275.421875 -201.296875 263.953125 -186.578125 C 252.492188 -171.867188 237.003906 -161.800781 217.484375 -156.375 C 197.972656 -150.957031 175.820312 -148.25 151.03125 -148.25 L 140.34375 -148.25 L 140.34375 0 Z M 134.296875 -228.640625 L 146.390625 -228.640625 C 151.648438 -228.640625 155.363281 -229.957031 157.53125 -232.59375 C 159.707031 -235.226562 160.796875 -239.953125 160.796875 -246.765625 L 160.796875 -525.140625 C 160.796875 -531.953125 159.707031 -536.675781 157.53125 -539.3125 C 155.363281 -541.945312 151.492188 -543.265625 145.921875 -543.265625 L 134.296875 -543.265625 Z M 134.296875 -228.640625 "/></g></g></g><g fill="#0171d3" fill-opacity="1"><g transform="translate(287.037866, 708.517517)"><g><path d="M 164.046875 0 L 161.265625 -89.234375 L 133.375 -89.234375 L 130.59375 0 L 2.328125 0 L 77.140625 -632.015625 L 217.03125 -632.015625 L 292.3125 0 Z M 135.703125 -161.265625 L 158.9375 -161.265625 L 149.171875 -455.890625 L 144.53125 -455.890625 Z M 135.703125 -161.265625 "/></g></g></g><g fill="#0171d3" fill-opacity="1"><g transform="translate(547.744849, 708.517517)"><g><path d="M 49.71875 0 L 49.71875 -537.21875 L 3.25 -537.21875 L 3.25 -632.015625 L 223.53125 -632.015625 L 223.53125 -537.21875 L 177.53125 -537.21875 L 177.53125 0 Z M 49.71875 0 "/></g></g><g transform="translate(774.99211, 708.517517)"><g><path d="M 282.546875 0 L 160.796875 0 L 151.5 -228.171875 L 134.296875 -228.171875 L 134.296875 0 L 12.078125 0 L 12.078125 -632.015625 L 142.671875 -632.015625 C 170.554688 -632.015625 194.953125 -629.300781 215.859375 -623.875 C 236.773438 -618.457031 252.960938 -608.390625 264.421875 -593.671875 C 275.890625 -578.960938 281.625 -557.359375 281.625 -528.859375 L 281.625 -322.515625 C 281.625 -306.398438 279.300781 -292.765625 274.65625 -281.609375 C 270.007812 -270.460938 263.347656 -261.328125 254.671875 -254.203125 Z M 146.390625 -299.75 C 151.648438 -299.75 155.363281 -301.21875 157.53125 -304.15625 C 159.707031 -307.101562 160.796875 -312.140625 160.796875 -319.265625 L 160.796875 -525.140625 C 160.796875 -531.953125 159.707031 -536.675781 157.53125 -539.3125 C 155.363281 -541.945312 151.492188 -543.265625 145.921875 -543.265625 L 134.296875 -543.265625 L 134.296875 -299.75 Z M 146.390625 -299.75 "/></g></g><g transform="translate(1067.299943, 708.517517)"><g><path d="M 69.703125 9.296875 C 54.210938 9.296875 42.050781 7.515625 33.21875 3.953125 C 24.394531 0.390625 18.28125 -6.5 14.875 -16.71875 C 11.46875 -26.945312 9.765625 -41.976562 9.765625 -61.8125 C 9.765625 -83.5 11.46875 -99.6875 14.875 -110.375 C 18.28125 -121.0625 24.394531 -128.265625 33.21875 -131.984375 C 42.050781 -135.703125 54.210938 -137.5625 69.703125 -137.5625 C 85.503906 -137.5625 97.816406 -135.703125 106.640625 -131.984375 C 115.472656 -128.265625 121.59375 -121.0625 125 -110.375 C 128.414062 -99.6875 130.125 -83.5 130.125 -61.8125 C 130.125 -41.976562 128.414062 -26.945312 125 -16.71875 C 121.59375 -6.5 115.472656 0.390625 106.640625 3.953125 C 97.816406 7.515625 85.503906 9.296875 69.703125 9.296875 Z M 69.703125 9.296875 "/></g></g></g><g fill="#0171d3" fill-opacity="1"><g transform="translate(1206.7313, 708.517517)"><g/></g></g></g></g></svg>