<svg xmlns="http://www.w3.org/2000/svg" xmlns:xlink="http://www.w3.org/1999/xlink" width="1920" zoomAndPan="magnify" viewBox="0 0 1440 809.999993" height="1080" preserveAspectRatio="xMidYMid meet" version="1.0"><defs><g/><clipPath id="160313f378"><rect x="0" width="1408" y="0" height="778"/></clipPath></defs><g transform="matrix(1, 0, 0, 1, 32, 32)"><g clip-path="url(#160313f378)"><g fill="#0057ff" fill-opacity="0.302"><g transform="translate(54.752833, 652.607433)"><g><path d="M 190.390625 -328.109375 L 190.390625 -478 L 121.53125 -478 L 121.53125 -291.65625 Z M 121.53125 0 L 32.40625 0 L 32.40625 -563.0625 L 206.59375 -563.0625 C 226.570312 -563.0625 243.71875 -555.632812 258.03125 -540.78125 C 272.34375 -525.925781 279.5 -507.695312 279.5 -486.09375 L 279.5 -273.015625 L 121.53125 -192 Z M 121.53125 0 "/></g></g></g><g fill="#0057ff" fill-opacity="0.302"><g transform="translate(358.560582, 652.607433)"><g><path d="M 32.40625 0 L 32.40625 -486.09375 C 32.40625 -507.695312 39.5625 -525.925781 53.875 -540.78125 C 68.1875 -555.632812 85.335938 -563.0625 105.328125 -563.0625 L 206.59375 -563.0625 C 226.570312 -563.0625 243.71875 -555.632812 258.03125 -540.78125 C 272.34375 -525.925781 279.5 -507.695312 279.5 -486.09375 L 279.5 0 L 190.390625 0 L 190.390625 -239 L 121.53125 -202.546875 L 121.53125 0 Z M 121.53125 -302.1875 L 190.390625 -338.640625 L 190.390625 -478 L 121.53125 -478 Z M 121.53125 -302.1875 "/></g></g></g><g fill="#0057ff" fill-opacity="0.302"><g transform="translate(670.469878, 652.607433)"><g><path d="M 101.265625 0 L 101.265625 -478 L 12.15625 -478 L 12.15625 -563.0625 L 279.5 -563.0625 L 279.5 -478 L 190.390625 -478 L 190.390625 0 Z M 101.265625 0 "/></g></g></g><g fill="#0057ff" fill-opacity="0.302"><g transform="translate(962.125435, 652.607433)"><g><path d="M 234.953125 0 L 141.78125 -210.640625 L 121.53125 -200.109375 L 121.53125 0 L 32.40625 0 L 32.40625 -563.0625 L 206.59375 -563.0625 C 226.570312 -563.0625 243.71875 -555.632812 258.03125 -540.78125 C 272.34375 -525.925781 279.5 -507.695312 279.5 -486.09375 L 279.5 -281.125 L 220.359375 -251.15625 L 332.171875 0 Z M 190.390625 -336.21875 L 190.390625 -478 L 121.53125 -478 L 121.53125 -299.765625 Z M 190.390625 -336.21875 "/></g></g></g><g fill="#0057ff" fill-opacity="0.302"><g transform="translate(1274.034731, 652.607433)"><g><path d="M 32.40625 0 L 32.40625 -89.125 L 121.53125 -89.125 L 121.53125 0 Z M 32.40625 0 "/></g></g></g><g fill="#0057ff" fill-opacity="0.502"><g transform="translate(28.062674, 632.494954)"><g><path d="M 190.390625 -328.109375 L 190.390625 -478 L 121.53125 -478 L 121.53125 -291.65625 Z M 121.53125 0 L 32.40625 0 L 32.40625 -563.0625 L 206.59375 -563.0625 C 226.570312 -563.0625 243.71875 -555.632812 258.03125 -540.78125 C 272.34375 -525.925781 279.5 -507.695312 279.5 -486.09375 L 279.5 -273.015625 L 121.53125 -192 Z M 121.53125 0 "/></g></g></g><g fill="#0057ff" fill-opacity="0.502"><g transform="translate(331.870423, 632.494954)"><g><path d="M 32.40625 0 L 32.40625 -486.09375 C 32.40625 -507.695312 39.5625 -525.925781 53.875 -540.78125 C 68.1875 -555.632812 85.335938 -563.0625 105.328125 -563.0625 L 206.59375 -563.0625 C 226.570312 -563.0625 243.71875 -555.632812 258.03125 -540.78125 C 272.34375 -525.925781 279.5 -507.695312 279.5 -486.09375 L 279.5 0 L 190.390625 0 L 190.390625 -239 L 121.53125 -202.546875 L 121.53125 0 Z M 121.53125 -302.1875 L 190.390625 -338.640625 L 190.390625 -478 L 121.53125 -478 Z M 121.53125 -302.1875 "/></g></g></g><g fill="#0057ff" fill-opacity="0.502"><g transform="translate(643.779719, 632.494954)"><g><path d="M 101.265625 0 L 101.265625 -478 L 12.15625 -478 L 12.15625 -563.0625 L 279.5 -563.0625 L 279.5 -478 L 190.390625 -478 L 190.390625 0 Z M 101.265625 0 "/></g></g></g><g fill="#0057ff" fill-opacity="0.502"><g transform="translate(935.435277, 632.494954)"><g><path d="M 234.953125 0 L 141.78125 -210.640625 L 121.53125 -200.109375 L 121.53125 0 L 32.40625 0 L 32.40625 -563.0625 L 206.59375 -563.0625 C 226.570312 -563.0625 243.71875 -555.632812 258.03125 -540.78125 C 272.34375 -525.925781 279.5 -507.695312 279.5 -486.09375 L 279.5 -281.125 L 220.359375 -251.15625 L 332.171875 0 Z M 190.390625 -336.21875 L 190.390625 -478 L 121.53125 -478 L 121.53125 -299.765625 Z M 190.390625 -336.21875 "/></g></g></g><g fill="#0057ff" fill-opacity="0.502"><g transform="translate(1247.344573, 632.494954)"><g><path d="M 32.40625 0 L 32.40625 -89.125 L 121.53125 -89.125 L 121.53125 0 Z M 32.40625 0 "/></g></g></g><g fill="#0057ff" fill-opacity="0.502"><g transform="translate(1401.30536, 632.494954)"><g/></g></g><g fill="#28ff0d" fill-opacity="1"><g transform="translate(1.372516, 612.382474)"><g><path d="M 190.390625 -328.109375 L 190.390625 -478 L 121.53125 -478 L 121.53125 -291.65625 Z M 121.53125 0 L 32.40625 0 L 32.40625 -563.0625 L 206.59375 -563.0625 C 226.570312 -563.0625 243.71875 -555.632812 258.03125 -540.78125 C 272.34375 -525.925781 279.5 -507.695312 279.5 -486.09375 L 279.5 -273.015625 L 121.53125 -192 Z M 121.53125 0 "/></g></g></g><g fill="#28ff0d" fill-opacity="1"><g transform="translate(305.180264, 612.382474)"><g><path d="M 32.40625 0 L 32.40625 -486.09375 C 32.40625 -507.695312 39.5625 -525.925781 53.875 -540.78125 C 68.1875 -555.632812 85.335938 -563.0625 105.328125 -563.0625 L 206.59375 -563.0625 C 226.570312 -563.0625 243.71875 -555.632812 258.03125 -540.78125 C 272.34375 -525.925781 279.5 -507.695312 279.5 -486.09375 L 279.5 0 L 190.390625 0 L 190.390625 -239 L 121.53125 -202.546875 L 121.53125 0 Z M 121.53125 -302.1875 L 190.390625 -338.640625 L 190.390625 -478 L 121.53125 -478 Z M 121.53125 -302.1875 "/></g></g></g><g fill="#28ff0d" fill-opacity="1"><g transform="translate(617.089561, 612.382474)"><g><path d="M 101.265625 0 L 101.265625 -478 L 12.15625 -478 L 12.15625 -563.0625 L 279.5 -563.0625 L 279.5 -478 L 190.390625 -478 L 190.390625 0 Z M 101.265625 0 "/></g></g></g><g fill="#28ff0d" fill-opacity="1"><g transform="translate(908.745118, 612.382474)"><g><path d="M 234.953125 0 L 141.78125 -210.640625 L 121.53125 -200.109375 L 121.53125 0 L 32.40625 0 L 32.40625 -563.0625 L 206.59375 -563.0625 C 226.570312 -563.0625 243.71875 -555.632812 258.03125 -540.78125 C 272.34375 -525.925781 279.5 -507.695312 279.5 -486.09375 L 279.5 -281.125 L 220.359375 -251.15625 L 332.171875 0 Z M 190.390625 -336.21875 L 190.390625 -478 L 121.53125 -478 L 121.53125 -299.765625 Z M 190.390625 -336.21875 "/></g></g></g><g fill="#28ff0d" fill-opacity="1"><g transform="translate(1220.654414, 612.382474)"><g><path d="M 32.40625 0 L 32.40625 -89.125 L 121.53125 -89.125 L 121.53125 0 Z M 32.40625 0 "/></g></g></g><g fill="#28ff0d" fill-opacity="1"><g transform="translate(1374.615201, 612.382474)"><g/></g></g></g></g></svg>